<svg width="60" height="60" viewBox="0 0 60 60" fill="none" xmlns="http://www.w3.org/2000/svg">
<path d="M56.25 3.75H3.75V56.25H56.25V3.75Z" fill="#FFCA28"/>
<path d="M35.625 47.4149L39.4903 44.8571C39.7933 45.8088 41.7116 48.0691 44.1347 48.0691C46.5577 48.0691 47.6827 46.7457 47.6827 45.8682C47.6827 43.4772 45.2085 42.6342 44.0201 42.2294C43.8263 42.1634 43.6669 42.1091 43.5578 42.0616C43.5017 42.0372 43.4171 42.0048 43.3086 41.9634C41.9869 41.4584 37.1106 39.5954 37.1106 34.1951C37.1106 28.247 42.8509 27.563 44.1491 27.563C44.9983 27.563 49.0817 27.667 51.1153 31.4887L47.3653 34.106C46.5433 32.4404 45.1774 31.8903 44.3366 31.8903C42.2597 31.8903 41.8269 33.4128 41.8269 34.106C41.8269 36.0507 44.0835 36.9224 45.9887 37.6584C46.4872 37.8509 46.9616 38.0341 47.3653 38.225C49.4422 39.2064 52.5 40.8125 52.5 45.8682C52.5 48.4006 50.376 52.5005 45.0289 52.5005C37.8461 52.5005 35.9423 48.1882 35.625 47.4149Z" fill="#3E3E3E"/>
<path d="M16.875 47.9227L20.9038 45.3663C21.2194 46.3175 22.4462 48.0714 24.2259 48.0714C26.0059 48.0714 26.9169 46.2432 26.9169 45.3663V28.1255H31.8716V45.3663C31.9519 47.7444 30.633 52.5005 24.8123 52.5005C19.4606 52.5005 17.2358 49.3199 16.875 47.9227Z" fill="#3E3E3E"/>
</svg>
