<svg width="60" height="60" viewBox="0 0 60 60" fill="none" xmlns="http://www.w3.org/2000/svg">
<path d="M53.4375 11.2502H6.5625C5.82648 11.2405 5.11672 11.5235 4.5893 12.0369C4.06189 12.5504 3.75999 13.2523 3.75 13.9883V46.0121C3.76001 46.7481 4.06191 47.4501 4.58933 47.9635C5.11674 48.477 5.82649 48.76 6.5625 48.7502H53.4375C54.1735 48.76 54.8833 48.477 55.4107 47.9635C55.9381 47.4501 56.24 46.7481 56.25 46.0121V13.9883C56.24 13.2523 55.9381 12.5504 55.4107 12.0369C54.8833 11.5235 54.1735 11.2405 53.4375 11.2502ZM29.8688 37.7215H26.1515V29.1494L22.4344 35.0611L18.7172 29.1494V37.7215H15V22.2527H18.4125L22.4344 28.1642L26.4562 22.2527H29.8688V37.7215ZM39.0894 37.7481L33.1787 29.7932H37.3031V22.2527H41.0202V29.7932H45L39.0894 37.7481Z" fill="black"/>
</svg>
