<svg width="60" height="60" viewBox="0 0 60 60" fill="none" xmlns="http://www.w3.org/2000/svg">
<path d="M30 56.25C44.4975 56.25 56.25 44.4975 56.25 30C56.25 15.5025 44.4975 3.75 30 3.75C15.5025 3.75 3.75 15.5025 3.75 30C3.75 44.4975 15.5025 56.25 30 56.25Z" fill="#8892BF"/>
<path d="M27.0732 18.75H30.2232L29.3329 23.4829H32.1634C33.7158 23.5161 34.8721 23.8629 35.6331 24.5237C36.4092 25.1842 36.6376 26.4401 36.3181 28.2902L34.7886 36.5417H31.5929L33.0537 28.6618C33.2058 27.8357 33.1602 27.2494 32.9168 26.9025C32.6734 26.5556 32.1484 26.3822 31.3418 26.3822L28.8079 26.3574L26.9361 36.5417H23.7861L27.0732 18.75Z" fill="white"/>
<path fill-rule="evenodd" clip-rule="evenodd" d="M12.6392 23.4829H18.7567C20.5522 23.4992 21.8535 24.0612 22.6601 25.1678C23.4667 26.2746 23.733 27.786 23.4591 29.7025C23.3527 30.5783 23.1167 31.437 22.7514 32.2797C22.4014 33.1221 21.9146 33.8818 21.2906 34.5593C20.5296 35.4182 19.7154 35.9633 18.8481 36.1949C17.9807 36.4262 17.0827 36.5417 16.1545 36.5417H13.4153L12.5479 41.2498H9.375L12.6392 23.4829ZM13.9403 33.7416L15.3054 26.3325H15.7665C15.934 26.3325 16.1089 26.3241 16.2915 26.3078C17.5091 26.2913 18.5208 26.4152 19.3275 26.6794C20.1491 26.9436 20.4231 27.9432 20.1491 29.6777C19.8146 31.7428 19.1599 32.9487 18.1861 33.2955C17.2123 33.6261 15.9947 33.7829 14.5338 33.7663H14.2143C14.1229 33.7663 14.0317 33.7579 13.9403 33.7416Z" fill="white"/>
<path fill-rule="evenodd" clip-rule="evenodd" d="M45.8183 23.4829H39.7007L36.4365 41.2498H39.6094L40.477 36.5417H43.2161C44.1443 36.5417 45.0422 36.4262 45.9096 36.1949C46.7772 35.9633 47.5911 35.4182 48.3521 34.5593C48.9762 33.8818 49.4629 33.1221 49.813 32.2797C50.1782 31.437 50.4143 30.5783 50.5206 29.7025C50.7945 27.786 50.5285 26.2746 49.7216 25.1678C48.915 24.0612 47.614 23.4992 45.8183 23.4829ZM42.367 26.3325L41.002 33.7416C41.0933 33.7579 41.1846 33.7663 41.2759 33.7663H41.5954C43.0564 33.7829 44.2738 33.6261 45.2477 33.2955C46.2214 32.9487 46.8761 31.7428 47.2108 29.6777C47.4848 27.9432 47.2108 26.9436 46.389 26.6794C45.5824 26.4152 44.5706 26.2913 43.353 26.3078C43.1704 26.3241 42.9956 26.3325 42.828 26.3325H42.367Z" fill="white"/>
</svg>
