<svg width="60" height="60" viewBox="0 0 60 60" fill="none" xmlns="http://www.w3.org/2000/svg">
<path fill-rule="evenodd" clip-rule="evenodd" d="M24.4057 3.75C20.2862 3.75 16.9467 6.98349 16.9467 10.9722V15.9722H29.8566V17.3611H11.209C7.08951 17.3611 3.75 20.5946 3.75 24.5833V35.4167C3.75 39.4054 7.08951 42.6388 11.209 42.6388H15.5123V36.5278C15.5123 32.5391 18.8518 29.3055 22.9714 29.3055H36.7417C40.2276 29.3055 43.0532 26.5695 43.0532 23.1945V10.9722C43.0532 6.98349 39.7138 3.75 35.5942 3.75H24.4057ZM22.6845 12.6389C24.1104 12.6389 25.2664 11.5196 25.2664 10.1389C25.2664 8.75818 24.1104 7.63888 22.6845 7.63888C21.2584 7.63888 20.1024 8.75818 20.1024 10.1389C20.1024 11.5196 21.2584 12.6389 22.6845 12.6389Z" fill="url(#paint0_linear_372_459)"/>
<path fill-rule="evenodd" clip-rule="evenodd" d="M35.5937 56.2502C39.7133 56.2502 43.0529 53.0167 43.0529 49.0281V44.028H30.1429V42.6392H48.7906C52.9101 42.6392 56.2495 39.4056 56.2495 35.4169V24.5835C56.2495 20.5948 52.9101 17.3613 48.7906 17.3613H44.4872V23.4724C44.4872 27.4612 41.1477 30.6947 37.0283 30.6947H23.2577C19.7719 30.6947 16.9463 33.4307 16.9463 36.8057V49.0281C16.9463 53.0167 20.2859 56.2502 24.4052 56.2502H35.5937ZM37.3152 47.3614C35.8891 47.3614 34.7331 48.4806 34.7331 49.8613C34.7331 51.2421 35.8891 52.3612 37.3152 52.3612C38.7411 52.3612 39.8971 51.2421 39.8971 49.8613C39.8971 48.4806 38.7411 47.3614 37.3152 47.3614Z" fill="url(#paint1_linear_372_459)"/>
<defs>
<linearGradient id="paint0_linear_372_459" x1="23.4017" y1="3.75" x2="23.4017" y2="42.6388" gradientUnits="userSpaceOnUse">
<stop stop-color="#327EBD"/>
<stop offset="1" stop-color="#1565A7"/>
</linearGradient>
<linearGradient id="paint1_linear_372_459" x1="36.598" y1="17.3613" x2="36.598" y2="56.2502" gradientUnits="userSpaceOnUse">
<stop stop-color="#FFDA4B"/>
<stop offset="1" stop-color="#F9C600"/>
</linearGradient>
</defs>
</svg>
