<svg width="60" height="60" viewBox="0 0 60 60" fill="none" xmlns="http://www.w3.org/2000/svg">
<g clip-path="url(#clip0_519_170)">
<path d="M2.25 0H57.75C58.9927 0 60 1.00735 60 2.25V57.75C60 58.9927 58.9927 60 57.75 60H2.25C1.00735 60 0 58.9927 0 57.75V2.25C0 1.00735 1.00735 0 2.25 0Z" fill="white"/>
<path d="M2.25 0H57.75C58.9927 0 60 1.00735 60 2.25V57.75C60 58.9927 58.9927 60 57.75 60H2.25C1.00735 60 0 58.9927 0 57.75V2.25C0 1.00735 1.00735 0 2.25 0ZM33.3531 31.92V26.9991H11.9995V31.92H19.6232V53.8306H25.692V31.92H33.3531ZM35.7727 53.2521C36.7514 53.751 37.9089 54.1253 39.2453 54.3748C40.5815 54.6242 41.9898 54.7491 43.4705 54.7491C44.9135 54.7491 46.2842 54.6118 47.5828 54.3374C48.8815 54.063 50.0202 53.6107 50.9988 52.9807C51.9775 52.3507 52.7522 51.5275 53.3232 50.5108C53.8941 49.494 54.1795 48.2372 54.1795 46.7402C54.1795 45.6549 54.0164 44.7039 53.6903 43.8868C53.364 43.0696 52.8935 42.3429 52.2787 41.7067C51.6639 41.0705 50.9266 40.4998 50.0672 39.9946C49.2076 39.4895 48.2384 39.0122 47.1593 38.5632C46.3689 38.2387 45.66 37.9237 45.0325 37.6182C44.4053 37.3126 43.872 37.0006 43.4328 36.6826C42.9937 36.3644 42.6549 36.0277 42.4165 35.6721C42.1782 35.3167 42.0588 34.9142 42.0588 34.4652C42.0588 34.0535 42.1657 33.6824 42.3789 33.3519C42.5922 33.0212 42.8933 32.7374 43.2824 32.5004C43.6712 32.2634 44.148 32.0795 44.7127 31.9484C45.2774 31.8175 45.9046 31.752 46.5948 31.752C47.0965 31.752 47.6268 31.7894 48.1851 31.8642C48.7435 31.9392 49.305 32.0545 49.8695 32.2103C50.4342 32.3663 50.9832 32.5627 51.5165 32.7999C52.0498 33.0369 52.5422 33.3113 52.9938 33.6231V28.0283C52.0779 27.6789 51.0773 27.42 49.992 27.2518C48.9065 27.0833 47.6612 26.9991 46.2561 26.9991C44.8255 26.9991 43.4705 27.1518 42.1906 27.4576C40.9108 27.7632 39.7848 28.2404 38.8124 28.8891C37.8399 29.5378 37.0715 30.3642 36.5068 31.3682C35.9421 32.3725 35.6598 33.5732 35.6598 34.9703C35.6598 36.7544 36.1775 38.2763 37.2127 39.5361C38.2477 40.7961 39.8192 41.8627 41.9273 42.7359C42.7553 43.0728 43.527 43.4033 44.2422 43.7278C44.9573 44.052 45.5753 44.3889 46.0959 44.7381C46.6168 45.0875 47.0275 45.4678 47.3287 45.8795C47.6298 46.2912 47.7805 46.7589 47.7805 47.283C47.7805 47.6698 47.6864 48.0284 47.4981 48.3588C47.31 48.6895 47.0245 48.9764 46.6419 49.2196C46.2591 49.4628 45.7823 49.6532 45.2114 49.7903C44.6405 49.9276 43.9724 49.9962 43.2069 49.9962C41.9022 49.9962 40.6098 49.7686 39.33 49.3133C38.0502 48.858 36.8645 48.1749 35.7727 47.2643V53.2521Z" fill="#3178C6"/>
</g>
<defs>
<clipPath id="clip0_519_170">
<rect width="60" height="60" fill="white"/>
</clipPath>
</defs>
</svg>
