<svg width="88" height="60" viewBox="0 0 88 60" fill="none" xmlns="http://www.w3.org/2000/svg">
<g clip-path="url(#clip0_524_462)">
<path d="M21.1496 54.6548H17.7552C17.6377 48.8996 17.3113 43.4853 16.763 38.4249H16.7369L11.567 54.6548H8.98204L3.83826 38.4249H3.81214C3.43354 43.2886 3.18549 48.703 3.0941 54.6548H0C0.195829 47.4182 0.704986 40.6274 1.50136 34.2822H5.70516L10.6009 49.2536H10.627L15.5489 34.2822H19.5699C20.4707 41.7155 20.9929 48.5063 21.1496 54.6548Z" fill="#00758F"/>
<path d="M35.8757 39.6308C34.4919 47.1689 32.6641 52.6357 30.4055 56.0442C28.6431 58.6793 26.7109 59.9902 24.609 59.9902C24.0476 59.9902 23.3557 59.8198 22.5332 59.479V57.6698C22.9379 57.7222 23.4079 57.7616 23.9432 57.7616C24.9223 57.7616 25.7187 57.4863 26.3192 56.9488C27.0373 56.2802 27.4028 55.546 27.4028 54.7201C27.4028 54.1564 27.1156 53.0027 26.5673 51.246L22.8465 39.6308H26.1756L28.852 48.3226C29.4525 50.289 29.7006 51.6787 29.6092 52.4521C31.0714 48.5323 32.0897 44.2585 32.6772 39.6308H35.8757Z" fill="#00758F"/>
<path d="M50.7459 49.0172C50.7459 50.7477 50.1192 52.1635 48.8529 53.2779C47.5865 54.3791 45.9024 54.9297 43.7743 54.9297C41.7899 54.9297 39.8708 54.2873 38.0039 53.0288L38.8786 51.2852C40.4844 52.0849 41.9335 52.4913 43.2391 52.4913C44.4663 52.4913 45.4193 52.216 46.1112 51.6785C46.8032 51.141 47.2209 50.3806 47.2209 49.4105C47.2209 48.2044 46.3854 47.1687 44.8449 46.3035C43.4219 45.5169 40.5758 43.8782 40.5758 43.8782C39.0353 42.7507 38.265 41.5446 38.265 39.5388C38.265 37.887 38.8394 36.5498 39.9883 35.5404C41.1372 34.5178 42.6255 34.0196 44.4532 34.0196C46.3332 34.0196 48.0434 34.5178 49.584 35.5273L48.8006 37.2709C47.4821 36.7071 46.1765 36.4318 44.8971 36.4318C43.8527 36.4318 43.0563 36.6809 42.4949 37.1922C41.9335 37.6904 41.5811 38.3328 41.5811 39.1193C41.5811 40.3254 42.4427 41.3742 44.0224 42.2526C45.4585 43.0392 48.3698 44.7041 48.3698 44.7041C49.9626 45.8315 50.7459 47.0376 50.7459 49.0172Z" fill="#F29111"/>
<path fill-rule="evenodd" clip-rule="evenodd" d="M56.8164 50.5904C55.9939 49.2664 55.5892 47.1295 55.5892 44.1929C55.5892 39.067 57.1428 36.4975 60.2499 36.4975C61.8688 36.4975 63.0699 37.1136 63.8271 38.3328C64.6496 39.6569 65.0543 41.7676 65.0543 44.6648C65.0543 49.8301 63.5007 52.4258 60.3935 52.4258C58.7747 52.4258 57.5736 51.8097 56.8164 50.5904ZM68.8925 55.1526L65.1587 53.3042C65.4851 53.0289 65.8115 52.7404 66.0856 52.3996C67.6653 50.5249 68.4617 47.7587 68.4617 44.1011C68.4617 37.3627 65.8245 33.9935 60.5632 33.9935C57.9783 33.9935 55.9678 34.8456 54.5186 36.563C52.939 38.4377 52.1426 41.1908 52.1426 44.8353C52.1426 48.4142 52.8476 51.0362 54.2445 52.7142C55.5239 54.2219 57.4561 54.9822 60.041 54.9822C61.0071 54.9822 61.8949 54.8642 62.6913 54.6283L67.5478 57.46L68.8925 55.1526Z" fill="#F29111"/>
<path d="M81.06 54.6548H71.4121V34.2822H74.6629V52.1508H81.06V54.6548Z" fill="#F29111"/>
<path d="M83.3844 54.6548H83.9197V52.5834H84.6247V52.1639H82.6533V52.5834H83.3844V54.6548ZM87.4707 54.6548H87.9799V52.1639H87.2227L86.596 53.8682L85.9171 52.1639H85.186V54.6548H85.6691V52.7539H85.6952L86.4002 54.6548H86.7657L87.4707 52.7539V54.6548Z" fill="#F29111"/>
<path fill-rule="evenodd" clip-rule="evenodd" d="M85.1339 27.4652C83.1756 27.4127 81.6481 27.6094 80.3818 28.16C80.0162 28.3042 79.4287 28.3042 79.3765 28.7762C79.5723 28.9728 79.5984 29.2874 79.7682 29.5627C80.0554 30.0609 80.5776 30.7164 81.0476 31.0573C81.5567 31.4505 82.079 31.8438 82.6142 32.1847C83.5673 32.7746 84.6508 33.1155 85.5778 33.7054C86.113 34.0463 86.6614 34.492 87.1966 34.8591C87.4708 35.0557 87.6405 35.3704 87.9799 35.5015V35.4228C87.8102 35.1999 87.758 34.8853 87.5883 34.6362C87.3402 34.3871 87.0922 34.1643 86.8572 33.9283C86.1522 32.9713 85.2644 32.1323 84.3114 31.4374C83.5281 30.8999 81.8048 30.1527 81.4915 29.2481C81.4915 29.2481 81.4654 29.2219 81.4392 29.1957C81.9745 29.1432 82.6142 28.9466 83.1364 28.8024C83.972 28.5795 84.7292 28.632 85.5908 28.4091C85.9825 28.3042 86.3741 28.1862 86.7658 28.0682V27.8454C86.3219 27.3996 86.0086 26.8097 85.5386 26.3902C84.2853 25.3021 82.9145 24.2533 81.4915 23.3618C80.7343 22.8637 79.7551 22.549 78.9457 22.1295C78.6585 21.9853 78.1624 21.9067 77.9926 21.6576C77.5488 21.1201 77.3007 20.399 76.9874 19.7567C76.2824 18.4064 75.5905 16.8987 74.9769 15.4698C74.533 14.5128 74.2719 13.5557 73.7236 12.6643C71.2039 8.48226 68.4492 5.95209 64.2454 3.46124C63.3446 2.94996 62.261 2.7271 61.1121 2.45179C60.4985 2.42557 59.8849 2.37313 59.2713 2.36002C58.8797 2.18959 58.488 1.71764 58.1486 1.49477C56.7517 0.603311 53.1484 -1.31071 52.117 1.21947C51.4512 2.81886 53.0962 4.39204 53.6576 5.20484C54.0753 5.76856 54.6106 6.41093 54.9109 7.05331C55.0806 7.47282 55.1328 7.91855 55.3025 8.36429C55.6942 9.4524 56.0597 10.6585 56.582 11.6679C56.8561 12.1792 57.1433 12.7298 57.4828 13.1887C57.6786 13.464 58.018 13.582 58.0964 14.0277C57.7569 14.5259 57.7308 15.26 57.535 15.8762C56.6472 18.6554 56.9997 22.1033 58.24 24.1484C58.6316 24.7646 59.5586 26.1149 60.8119 25.6036C61.9085 25.1579 61.6735 23.7551 61.9869 22.5228C62.0652 22.2213 62.013 22.0246 62.1566 21.828V21.8804C62.496 22.5621 62.8485 23.2307 63.1618 23.9256C63.919 25.1316 65.2507 26.3902 66.3473 27.2161C66.9348 27.6618 67.4048 28.4222 68.1359 28.6975V28.6188H68.0837C67.9401 28.396 67.7181 28.3042 67.5223 28.1338C67.0784 27.688 66.5954 27.1506 66.2429 26.6524C65.2115 25.2759 64.3107 23.742 63.5013 22.1688C63.1096 21.4085 62.7702 20.5695 62.4438 19.8091C62.3002 19.5207 62.3002 19.075 62.0521 18.9176C61.6866 19.4551 61.1513 19.9271 60.8772 20.5826C60.4072 21.6445 60.368 22.9423 60.1852 24.3057C60.0938 24.332 60.133 24.3057 60.0938 24.3582C59.3105 24.1615 59.0363 23.3487 58.7491 22.667C58.018 20.9234 57.8875 18.1179 58.5272 16.099C58.6969 15.5878 59.4411 13.9622 59.1408 13.464C58.9972 12.992 58.5011 12.7298 58.24 12.3497C57.9267 11.8777 57.5742 11.2878 57.3653 10.7765C56.7778 9.39996 56.4775 7.86611 55.8509 6.48959C55.5506 5.84721 55.0414 5.17861 54.6237 4.58867C54.1537 3.92008 53.6445 3.46124 53.279 2.67465C53.1615 2.39935 52.9918 1.95362 53.1745 1.66521C53.2267 1.46856 53.3181 1.3899 53.514 1.35057C53.8273 1.07527 54.7412 1.42922 55.0545 1.57343C55.9684 1.9405 56.7256 2.29447 57.4828 2.80575C57.8222 3.05484 58.1878 3.51368 58.6316 3.64478H59.1538C59.9372 3.8152 60.8249 3.69721 61.556 3.92008C62.8485 4.33959 64.0365 4.95575 65.0809 5.62435C68.2926 7.66947 70.9428 10.5667 72.7314 14.0408C73.0316 14.6045 73.1491 15.1289 73.4233 15.7189C73.9324 16.9249 74.5722 18.1573 75.0944 19.3371C75.6035 20.4908 76.0996 21.6707 76.8307 22.6408C77.1963 23.1521 78.6715 23.4274 79.3243 23.7027C79.8073 23.9256 80.5776 24.1222 81.0215 24.3844C81.857 24.8957 82.6926 25.4856 83.4759 26.0624C83.8414 26.364 85.0686 26.9801 85.1339 27.4652Z" fill="#00758F"/>
<path fill-rule="evenodd" clip-rule="evenodd" d="M60.1459 6.08312C59.7281 6.08312 59.4409 6.13556 59.1406 6.20111V6.25355H59.1928C59.3887 6.64684 59.7281 6.92214 59.9762 7.26299C60.172 7.65629 60.3417 8.04958 60.5375 8.44287C60.5637 8.41665 60.5898 8.39043 60.5898 8.39043C60.9292 8.14134 61.112 7.74805 61.112 7.15811C60.9684 6.98768 60.9423 6.81727 60.8117 6.64684C60.655 6.39776 60.3417 6.27976 60.1459 6.08312Z" fill="#00758F"/>
</g>
<defs>
<clipPath id="clip0_524_462">
<rect width="88" height="60" fill="white"/>
</clipPath>
</defs>
</svg>
