<svg width="54" height="60" viewBox="0 0 54 60" fill="none" xmlns="http://www.w3.org/2000/svg">
<path d="M42.5137 2.66211H4.61787C2.07805 2.66211 0 4.72697 0 7.2501V48.7691C0 51.2921 2.07805 53.3566 4.61787 53.3566H29.5771C29.2938 41.0189 33.5347 17.0751 42.5137 2.66211Z" fill="#0F80CC"/>
<path d="M41.1368 4.00049H4.61767C2.81425 4.00049 1.34668 5.45809 1.34668 7.25006V45.7399C9.61748 42.5863 22.0309 39.8652 30.6141 39.9888C32.3389 31.0291 37.408 13.47 41.1368 4.00049Z" fill="url(#paint0_linear_524_493)"/>
<path d="M51.3528 1.30341C48.7574 -0.99602 45.6149 -0.0723682 42.5135 2.66217C42.0531 3.06843 41.5938 3.51914 41.1367 4.00059C35.8312 9.59216 30.9064 19.9495 29.3764 27.8595C29.9724 29.0603 30.438 30.5926 30.7446 31.7631C30.8231 32.0634 30.8941 32.3453 30.9507 32.5851C31.0854 33.1526 31.1578 33.5206 31.1578 33.5206C31.1578 33.5206 31.1102 33.3417 30.915 32.7795C30.8779 32.6716 30.8365 32.5539 30.7874 32.4153C30.7665 32.3581 30.7374 32.2886 30.7055 32.2143C30.3595 31.415 29.4021 29.7281 28.9808 28.9936C28.6204 30.0497 28.302 31.0376 28.0354 31.9315C29.2517 34.1424 29.9929 37.9313 29.9929 37.9313C29.9929 37.9313 29.9286 37.6857 29.623 36.8287C29.3517 36.0707 28.0001 33.7183 27.68 33.1683C27.1324 35.1768 26.9148 36.5328 27.111 36.8629C27.492 37.5027 27.8548 38.6065 28.1734 39.8273C28.8932 42.5774 29.3935 45.9253 29.3935 45.9253C29.3935 45.9253 29.4097 46.1471 29.4369 46.4885C29.3369 48.798 29.3969 51.1924 29.5768 53.3567C29.8153 56.2217 30.2642 58.6828 30.8365 60L31.2249 59.7896C30.3847 57.1945 30.0434 53.7936 30.1928 49.8715C30.419 43.8765 31.8076 36.6467 34.3735 29.1113C38.7084 17.7362 44.7228 8.60939 50.2274 4.25078C45.2103 8.75222 38.4199 23.323 36.3872 28.7188C34.1112 34.7611 32.4983 40.4312 31.5263 45.8637C33.2034 40.7708 38.6261 38.5816 38.6261 38.5816C38.6261 38.5816 41.2857 35.3229 44.3939 30.6673C42.532 31.0892 39.4749 31.8114 38.4509 32.2389C36.9404 32.8684 36.5333 33.0831 36.5333 33.0831C36.5333 33.0831 41.4262 30.123 45.624 28.7826C51.397 19.7495 57.6866 6.91674 51.3528 1.30341Z" fill="#003B57"/>
<defs>
<linearGradient id="paint0_linear_524_493" x1="24.2903" y1="4.85466" x2="24.2903" y2="43.4186" gradientUnits="userSpaceOnUse">
<stop stop-color="#97D9F6"/>
<stop offset="0.920245" stop-color="#0F80CC"/>
<stop offset="1" stop-color="#0F80CC"/>
</linearGradient>
</defs>
</svg>
