<svg width="85" height="60" viewBox="0 0 85 60" fill="none" xmlns="http://www.w3.org/2000/svg">
<g clip-path="url(#clip0_524_526)">
<path d="M73.4989 21.6893C73.0535 18.4466 71.2722 15.6311 68.0581 13.0874L66.1993 11.8252L64.9601 13.7087C63.3724 16.1359 62.5786 19.5146 62.8303 22.7573C62.9465 23.8835 63.3143 25.9417 64.4567 27.7087C63.3143 28.3495 61.049 29.2039 58.0285 29.1456H0.329146L0.212973 29.8252C-0.329168 33.068 -0.329168 43.2233 6.15716 51.0097C11.0945 56.932 18.4715 59.9417 28.1139 59.9417C49.025 59.9417 64.4761 50.1748 71.7369 32.3883C74.5831 32.4466 80.721 32.4078 83.877 26.2913C83.9544 26.1553 84.1481 25.7864 84.6902 24.6214L85 23.9806L83.238 22.7767C81.3018 21.5146 76.9066 21.0291 73.4989 21.6893ZM46.4692 0H37.6982V8.09709H46.4692V0ZM46.4692 9.72815H37.6982V17.8252H46.4692V9.72815ZM36.0911 9.72815H27.32V17.8252H36.0911V9.72815ZM25.7323 9.72815H16.9613V17.8252H25.7323V9.72815ZM15.3542 19.4563H6.58313V27.5534H15.3542V19.4563ZM25.7323 19.4563H16.9613V27.5534H25.7323V19.4563ZM36.0911 19.4563H27.32V27.5534H36.0911V19.4563ZM46.4692 19.4563H37.6982V27.5534H46.4692V19.4563ZM56.8474 19.4563H48.0763V27.5534H56.8474V19.4563Z" fill="#1D63ED"/>
</g>
<defs>
<clipPath id="clip0_524_526">
<rect width="85" height="60" fill="white"/>
</clipPath>
</defs>
</svg>
