<svg width="60" height="60" viewBox="0 0 60 60" fill="none" xmlns="http://www.w3.org/2000/svg">
<g clip-path="url(#clip0_524_528)">
<mask id="mask0_524_528" style="mask-type:luminance" maskUnits="userSpaceOnUse" x="0" y="0" width="60" height="60">
<path d="M0 0.0737305H59.9263V60H0V0.0737305Z" fill="white"/>
</mask>
<g mask="url(#mask0_524_528)">
<path d="M58.7973 27.3683L32.632 1.20505C32.2736 0.84639 31.848 0.561875 31.3796 0.367759C30.9112 0.173643 30.4091 0.0737305 29.902 0.0737305C29.395 0.0737305 28.8929 0.173643 28.4245 0.367759C27.9561 0.561875 27.5305 0.84639 27.172 1.20505L21.7407 6.63896L28.6316 13.5298C29.4417 13.2547 30.3127 13.2117 31.146 13.4058C31.9793 13.5999 32.7416 14.0233 33.3468 14.6281C33.9554 15.2373 34.3802 16.0054 34.5727 16.8447C34.7652 17.684 34.7176 18.5605 34.4353 19.374L41.079 26.0157C41.8927 25.7331 42.7696 25.6855 43.6091 25.8783C44.4486 26.0712 45.2167 26.4967 45.8255 27.1061C46.252 27.5325 46.5902 28.0387 46.821 28.5958C47.0518 29.1529 47.1706 29.75 47.1706 30.353C47.1706 30.956 47.0518 31.5531 46.821 32.1102C46.5902 32.6673 46.252 33.1735 45.8255 33.5998C44.9634 34.4611 43.7946 34.9448 42.5761 34.9448C41.3575 34.9448 40.1887 34.4611 39.3266 33.5998C38.6862 32.9583 38.2498 32.1417 38.0725 31.2528C37.8952 30.3638 37.9848 29.4423 38.3301 28.6042L32.1344 22.4105V38.7129C32.7884 39.0359 33.3559 39.5101 33.7901 40.0962C34.2243 40.6822 34.5127 41.3633 34.6312 42.083C34.7498 42.8027 34.6952 43.5402 34.4719 44.2346C34.2487 44.929 33.8632 45.5602 33.3475 46.0759C32.9211 46.5024 32.4149 46.8406 31.8578 47.0714C31.3007 47.3022 30.7036 47.421 30.1006 47.421C29.4976 47.421 28.9005 47.3022 28.3434 47.0714C27.7863 46.8406 27.2801 46.5024 26.8538 46.0759C26.4272 45.6496 26.0889 45.1433 25.858 44.5862C25.6272 44.029 25.5084 43.4318 25.5084 42.8287C25.5084 42.2257 25.6272 41.6285 25.858 41.0713C26.0889 40.5142 26.4272 40.0079 26.8538 39.5816C27.2834 39.151 27.7941 38.8099 28.3564 38.5779V22.1255C27.7964 21.8948 27.2876 21.5558 26.859 21.128C26.4305 20.7001 26.0907 20.1917 25.8592 19.6321C25.6277 19.0725 25.5091 18.4727 25.5101 17.8671C25.5111 17.2615 25.6317 16.6621 25.8651 16.1033L19.0707 9.30766L1.12812 27.2457C0.405097 27.9701 -0.000976562 28.9519 -0.000976562 29.9754C-0.000976563 30.9989 0.405097 31.9806 1.12812 32.705L27.2946 58.8716C28.0191 59.5944 29.0006 60.0004 30.024 60.0004C31.0474 60.0004 32.0289 59.5944 32.7533 58.8716L58.7973 32.8277C59.5203 32.1032 59.9264 31.1215 59.9264 30.098C59.9264 29.0745 59.5203 28.0928 58.7973 27.3683Z" fill="#F03C2E"/>
</g>
</g>
<defs>
<clipPath id="clip0_524_528">
<rect width="60" height="60" fill="white"/>
</clipPath>
</defs>
</svg>
