<svg width="99" height="60" viewBox="0 0 99 60" fill="none" xmlns="http://www.w3.org/2000/svg">
<path opacity="0.263538" d="M99 56.5116C98.9979 57.4369 93.7818 58.3242 84.4989 58.9785C75.2161 59.6327 62.6268 60.0002 49.5 60.0002C36.3732 60.0002 23.7839 59.6327 14.5011 58.9785C5.21823 58.3242 0.00213071 57.4369 6.51747e-07 56.5116C-0.00105427 56.0534 1.27852 55.5996 3.76566 55.1763C6.25279 54.7529 9.89877 54.3682 14.4954 54.0441C19.092 53.7201 24.5492 53.463 30.5553 53.2876C36.5615 53.1122 42.9989 53.022 49.5 53.022C56.0011 53.022 62.4385 53.1122 68.4447 53.2876C74.4508 53.463 79.908 53.7201 84.5046 54.0441C89.1012 54.3682 92.7472 54.7529 95.2343 55.1763C97.7215 55.5996 99.0011 56.0534 99 56.5116Z" fill="url(#paint0_linear_524_521)"/>
<path d="M42.8088 57.9164C41.8506 57.6123 41.8472 57.4781 42.73 54.8058C43.6117 52.1371 43.2076 49.6589 41.5732 47.7108C39.3507 45.0618 38.2805 42.8014 37.9393 40.0358C37.6465 37.6614 37.5536 37.4732 36.5839 37.2876C35.9336 37.1631 35.0351 37.4096 32.8937 38.3001C29.7782 39.5956 29.0361 40.1645 28.301 41.821C27.9148 42.6912 27.8684 43.2125 28.0874 44.2191C28.3549 45.4482 29.4512 47.4267 29.8662 47.4294C29.9745 47.4301 30.5728 47.8386 31.1957 48.3372C32.2295 49.1645 32.3004 49.3083 32.0079 49.9827C31.3723 51.4482 29.8623 53.2249 29.2523 53.2249C28.9101 53.2249 27.5127 52.2491 25.9744 50.936C22.953 48.357 22.8264 48.0984 22.5143 43.871C22.142 38.827 23.3862 36.473 28.9278 31.7371L32.4034 28.7667L32.6254 26.965C32.8542 25.1076 32.5316 20.6849 31.9892 18.2436C31.6687 16.8014 30.6112 15.4277 29.6077 15.1501C28.5143 14.8477 27.8733 15.4717 27.0416 17.6481C26.1441 19.9964 25.2864 20.8157 23.7253 20.8157C22.753 20.8157 21.8456 20.1956 21.219 19.103C20.77 18.3201 20.5094 13.6167 20.7778 11.1408C20.9069 9.94986 20.9143 8.74403 20.7943 8.46121C20.5989 8.00101 18.9167 7.00553 14.9506 5.0032C14.2296 4.63919 13.3891 4.14909 13.0828 3.91407C12.7765 3.67905 11.9816 3.24695 11.3164 2.95386C9.80963 2.28997 5.88099 0 6.24878 0C6.94458 0 9.8933 0.904734 11.4631 1.59986C12.4213 2.02421 13.3386 2.3714 13.5015 2.3714C13.6644 2.3714 15.5118 2.96425 17.6069 3.68885C19.7021 4.41345 21.617 5.0063 21.8623 5.0063C22.4451 5.0063 22.5364 4.50373 22.3497 2.3258C22.2649 1.33645 22.2686 0.526978 22.358 0.526978C22.4474 0.526978 22.8335 0.717989 23.216 0.951443C24.3845 1.66468 26.898 2.1015 29.8522 2.10478C32.677 2.10813 36.3642 2.66663 37.7734 3.30505C39.795 4.2209 42.14 7.08137 45.1147 12.2602C47.1827 15.8606 49.4048 17.3851 52.5894 17.3885C53.8768 17.39 57.3115 16.8608 61.9628 15.9449C65.7979 15.1896 70.8608 15.0198 72.826 15.5806C75.2234 16.2647 78.3934 18.0936 81.0144 20.3049C83.4675 22.3745 83.8453 22.8339 85.3522 25.5803C87.1506 28.8578 89.1355 33.5159 90.9005 38.6012C91.152 39.3258 91.6832 40.5447 92.081 41.3098C93.1422 43.3512 93.0893 43.4758 91.1608 43.4758C89.0676 43.4758 88.086 43.1467 86.7138 41.9852C85.3978 40.8711 85.054 40.1895 82.9942 34.6104C81.9391 31.7527 80.912 30.0378 80.2555 30.0378C79.8057 30.0378 78.8953 33.1002 78.8953 34.6132C78.8953 35.6878 79.5708 37.1395 81.3173 39.8181C84.1544 44.1696 85.6469 50.3209 85.0495 55.201L84.7914 57.309L82.9006 57.3874C79.9238 57.511 79.9536 57.5522 79.9536 53.3088C79.9536 48.7911 79.6449 47.8128 77.6451 45.9908C76.8144 45.234 74.9508 43.0839 73.5037 41.2128C72.0566 39.3417 70.6707 37.8107 70.424 37.8107C69.8571 37.8107 69.5745 39.3495 69.5443 42.5992C69.5245 44.7394 69.44 45.1016 68.8066 45.7611C67.0895 47.5489 65.8841 50.8044 65.141 55.6611C64.9766 56.7362 64.8356 56.9373 64.1366 57.0937C63.1087 57.3238 60.2605 57.3615 60.0151 57.1482C59.8034 56.9643 60.1743 54.0451 61.0158 49.2725C61.3352 47.461 61.6838 45.0304 61.7905 43.871C61.9804 41.8071 61.5559 37.9403 61.0535 37.158C60.8446 36.8327 59.7809 36.7623 54.8058 36.7441C51.508 36.732 47.8914 36.6238 46.7688 36.5037L44.7279 36.2853V37.1882C44.7279 38.1551 44.9765 39.0073 46.6389 43.7393C47.2244 45.4058 48.0728 47.9465 48.5242 49.3852L49.3451 52.0011L48.6524 54.128C48.2714 55.2979 47.706 56.6996 47.3959 57.2431C46.849 58.2016 46.7849 58.2306 45.2509 58.2104C44.3812 58.1989 43.2822 58.0667 42.8088 57.9164Z" fill="#499848"/>
<defs>
<linearGradient id="paint0_linear_524_521" x1="72.9786" y1="53.309" x2="8.09044" y2="56.5316" gradientUnits="userSpaceOnUse">
<stop stop-color="#959595"/>
<stop offset="1" stop-color="#CCCCCC"/>
</linearGradient>
</defs>
</svg>
