<svg width="53" height="60" viewBox="0 0 53 60" fill="none" xmlns="http://www.w3.org/2000/svg">
<g clip-path="url(#clip0_524_522)">
<path d="M0.424927 45.0002C0.695335 45.4618 1.08163 45.8464 1.58382 46.1156L24.9934 59.5771C25.9592 60.1541 27.1567 60.1541 28.0838 59.5771L51.4934 46.1156C52.4592 45.5771 53.0386 44.5387 53.0386 43.4233V16.5387C53.0386 15.4233 52.4592 14.4233 51.4934 13.8464L28.0838 0.384841C27.1181 -0.192082 25.9206 -0.192082 24.9934 0.384841L1.54519 13.8848C0.579446 14.4233 0 15.4618 0 16.5771V43.4618C0 44.0002 0.154519 44.5387 0.424927 45.0002Z" fill="#009639"/>
<path d="M19.0057 40.2312C19.0057 41.8851 17.6537 43.2312 15.9926 43.2312C14.3315 43.2312 12.9795 41.8851 12.9795 40.2312V19.6543C13.0954 17.9235 14.5633 16.6158 16.3017 16.7312C16.3403 16.7312 16.3403 16.7312 16.3789 16.7312C17.9627 16.6927 19.4307 17.3851 20.4737 18.5389L21.4008 19.6158L33.9941 34.6543V19.7697C33.9941 18.1158 35.3461 16.7697 37.0072 16.7697C38.6683 16.7697 40.0203 18.1158 40.0203 19.7697V40.3466C39.9044 42.0774 38.4365 43.3851 36.6982 43.2697C36.6595 43.2697 36.6595 43.2697 36.6209 43.2697C35.0371 43.3081 33.5691 42.6158 32.5261 41.462L19.0057 25.3466V40.2312Z" fill="white"/>
</g>
<defs>
<clipPath id="clip0_524_522">
<rect width="53" height="60" fill="white"/>
</clipPath>
</defs>
</svg>
