<svg width="60" height="60" viewBox="0 0 60 60" fill="none" xmlns="http://www.w3.org/2000/svg">
<path d="M30 60C46.5685 60 60 46.5685 60 30C60 13.4314 46.5685 0 30 0C13.4314 0 0 13.4314 0 30C0 46.5685 13.4314 60 30 60Z" fill="#009CFB"/>
<path d="M3.05664 30.9473C3.40698 30.3268 3.81801 29.5607 4.28974 28.649L5.61905 26.0978C6.03283 25.3095 6.37767 24.6274 6.65355 24.0518C7.09145 24.0584 7.40181 24.0619 7.58456 24.0619C7.90458 24.0619 8.21768 24.0584 8.52387 24.0518L9.24801 26.1205L10.8173 30.3941L11.0346 30.9495L10.2784 30.9391C10.1032 30.9391 9.80904 30.9426 9.39596 30.9495C9.31527 30.6495 9.18801 30.2453 9.01423 29.7372C8.84042 29.2288 8.69285 28.8151 8.57146 28.4959H5.9056C5.51181 29.2986 5.12939 30.1159 4.75837 30.9473L3.93078 30.9372C3.77629 30.9372 3.48491 30.9407 3.05664 30.9473ZM6.35456 27.4468H8.29009L7.4956 25.109L7.08182 25.9591L6.35456 27.4468Z" fill="white"/>
<g opacity="0.7">
<path d="M11.3693 30.7957L11.3135 30.2402C11.4492 30.2977 11.5893 30.3444 11.7324 30.3798C11.8358 30.4047 11.9416 30.4177 12.048 30.4189C12.13 30.4211 12.2118 30.4095 12.29 30.3848C12.3487 30.3668 12.4002 30.3305 12.4369 30.2816C12.4672 30.2411 12.4839 30.1922 12.4845 30.1417C12.4847 30.1215 12.4827 30.1009 12.4783 30.0807C12.4733 30.0605 12.4657 30.0409 12.4556 30.0229C12.4446 30.0027 12.4318 29.9838 12.4173 29.9661C12.3992 29.9443 12.3795 29.9238 12.3583 29.9048C12.3328 29.8821 12.2983 29.8534 12.2549 29.818L12.1183 29.7147C11.9873 29.6118 11.8869 29.5313 11.8173 29.4725C11.7531 29.4185 11.6949 29.3579 11.6435 29.2916C11.5991 29.2325 11.5642 29.1668 11.54 29.097C11.5064 29.0045 11.4956 28.9054 11.5088 28.8078C11.5219 28.7105 11.5586 28.6177 11.6156 28.5375C11.695 28.4225 11.8098 28.3369 11.9424 28.2934C12.1051 28.239 12.2758 28.2131 12.4473 28.2166C12.7032 28.2204 12.9584 28.2466 13.2097 28.2952L13.2428 28.8229C13.0647 28.7471 12.8735 28.7067 12.68 28.7039C12.5936 28.7026 12.5074 28.7124 12.4235 28.7329C12.3628 28.7446 12.3074 28.7756 12.2652 28.8207C12.2343 28.858 12.2175 28.9047 12.2176 28.9534C12.2178 28.9821 12.223 29.0108 12.2332 29.038C12.2456 29.0699 12.2635 29.0992 12.2859 29.1248C12.3121 29.1561 12.3412 29.1848 12.3728 29.2107C12.4059 29.2376 12.4749 29.2909 12.5797 29.3702C12.6845 29.4495 12.7759 29.5211 12.8538 29.5852C12.9253 29.6424 12.9902 29.7071 13.0473 29.7788C13.0965 29.8414 13.1356 29.9111 13.1632 29.9857C13.1896 30.0574 13.2033 30.1335 13.2035 30.2102C13.2035 30.3365 13.1629 30.4594 13.0876 30.5607C12.998 30.6776 12.8761 30.7654 12.7369 30.8134C12.5689 30.8759 12.3907 30.9068 12.2114 30.9043C12.0883 30.903 11.9654 30.8948 11.8432 30.8803C11.6835 30.8626 11.5252 30.8342 11.3693 30.7957Z" fill="white"/>
<path d="M13.3899 32.0027C13.3595 31.7503 13.335 31.5684 13.3164 31.4576C13.4586 31.5287 13.6147 31.5675 13.7736 31.5713C13.8186 31.571 13.8634 31.5656 13.9071 31.5549C13.9509 31.5444 13.9933 31.5287 14.0333 31.5081C14.0614 31.4923 14.0872 31.4731 14.1099 31.4503C14.1484 31.4074 14.1831 31.361 14.2133 31.3117C14.2569 31.2476 14.2966 31.181 14.3323 31.1118C14.3641 31.043 14.3917 30.9722 14.415 30.8999L13.8895 29.3649L13.5057 28.2754C13.6823 28.2754 13.8095 28.2754 13.8874 28.2754C13.9764 28.2754 14.0933 28.2754 14.2381 28.2754C14.2733 28.4134 14.3078 28.5347 14.3416 28.6395L14.5816 29.4331C14.6554 29.6772 14.7085 29.8607 14.7409 29.9835C14.7609 30.064 14.7844 30.1711 14.8112 30.304C14.8616 30.1509 14.9054 30.0264 14.9426 29.9304C15.0116 29.7555 15.1033 29.5212 15.2178 29.2281L15.463 28.624C15.5064 28.5163 15.5509 28.4001 15.5964 28.2754C15.7481 28.2754 15.8637 28.2754 15.943 28.2754H16.3071L15.3347 30.454L14.9126 31.4162C14.8666 31.5189 14.8097 31.6161 14.743 31.7068C14.7016 31.763 14.6533 31.8138 14.5992 31.8577C14.5497 31.8984 14.4955 31.9332 14.4378 31.9613C14.3624 31.996 14.2837 32.0229 14.203 32.0418C14.1074 32.062 14.0099 32.0721 13.9123 32.0718C13.8564 32.0718 13.7788 32.0668 13.6795 32.0563C13.5818 32.0453 13.485 32.0273 13.3899 32.0027Z" fill="white"/>
<path d="M16.4766 30.8432C16.5152 30.4611 16.5473 30.0316 16.5728 29.5551C16.5983 29.0786 16.6131 28.6516 16.6172 28.2746C16.7724 28.2746 16.8962 28.2746 16.9886 28.2746C17.0983 28.2746 17.2145 28.2746 17.3372 28.2746L17.3093 28.7037C17.3517 28.6421 17.3976 28.5831 17.4469 28.5269C17.4924 28.4779 17.5434 28.4347 17.599 28.3974C17.6598 28.3548 17.7259 28.32 17.7956 28.2941C17.8719 28.267 17.9505 28.2465 18.0304 28.2332C18.1202 28.2177 18.2113 28.2101 18.3024 28.2105C18.4478 28.2098 18.5925 28.2288 18.7328 28.2673C18.8571 28.2983 18.9715 28.3605 19.0648 28.4483C19.1435 28.5218 19.201 28.615 19.2314 28.7183C19.2587 28.8193 19.2723 28.9238 19.2717 29.0287C19.2717 29.0741 19.2693 29.1465 19.2645 29.2459L19.2128 30.3496C19.2059 30.5028 19.2017 30.666 19.2004 30.84C19.0673 30.84 18.9535 30.84 18.859 30.84C18.7307 30.84 18.6017 30.84 18.4721 30.84C18.4859 30.6938 18.5028 30.4384 18.5228 30.0733C18.5428 29.7086 18.5528 29.4673 18.5528 29.3492C18.5575 29.239 18.5359 29.1291 18.4897 29.0287C18.4468 28.9472 18.378 28.8825 18.2942 28.8446C18.2046 28.8019 18.1067 28.7805 18.0076 28.7814C17.9104 28.7805 17.8142 28.8004 17.7252 28.8392C17.6376 28.878 17.5598 28.9361 17.4976 29.0091C17.427 29.0909 17.3738 29.1863 17.3414 29.2892C17.2911 29.4799 17.2623 29.6757 17.2556 29.8728C17.2383 30.1134 17.2249 30.4358 17.2152 30.84C17.0855 30.84 16.9683 30.84 16.8635 30.84C16.7586 30.84 16.6297 30.841 16.4766 30.8432Z" fill="white"/>
<path d="M21.8179 30.2607C21.8097 30.3296 21.7967 30.4079 21.7797 30.4957C21.7623 30.5832 21.7446 30.6918 21.7269 30.8216C21.4936 30.8759 21.2548 30.9037 21.0151 30.9043C20.8827 30.9046 20.7507 30.8917 20.621 30.8658C20.4964 30.8415 20.3771 30.7957 20.2682 30.7303C20.1575 30.6637 20.0603 30.5765 19.9816 30.4739C19.895 30.3593 19.8321 30.2282 19.7965 30.089C19.7551 29.9374 19.7342 29.7808 19.7344 29.6235C19.7341 29.4154 19.7691 29.2085 19.8378 29.0121C19.8972 28.8305 19.9998 28.6663 20.1368 28.5331C20.2599 28.414 20.4106 28.3272 20.5754 28.2808C20.7505 28.2343 20.9312 28.2116 21.1123 28.2135C21.2255 28.2135 21.3382 28.2198 21.4506 28.2321C21.5899 28.2489 21.7282 28.2744 21.8643 28.3089L21.9025 28.8621C21.6925 28.7838 21.4708 28.7402 21.2469 28.733C21.1362 28.7323 21.0265 28.7519 20.923 28.7907C20.822 28.8293 20.7321 28.8921 20.6613 28.9739C20.5881 29.0576 20.5347 29.1564 20.5051 29.2635C20.4741 29.3728 20.4584 29.4861 20.4585 29.5998C20.4555 29.7413 20.4808 29.8818 20.533 30.0135C20.5833 30.1313 20.6739 30.2273 20.7885 30.2844C20.9164 30.3504 21.0585 30.3833 21.2024 30.3808C21.2949 30.3792 21.3875 30.3694 21.4784 30.3517C21.594 30.3309 21.7074 30.3005 21.8179 30.2607Z" fill="white"/>
</g>
<path d="M22.292 30.9476C22.3725 29.789 22.4382 28.6013 22.4884 27.3839C22.5389 26.1666 22.5639 25.2356 22.5639 24.5908V24.0508L23.408 24.0612L24.182 24.0508C24.044 25.8217 23.9568 28.12 23.9202 30.9457L23.1775 30.9353C23.0486 30.9366 22.7534 30.9407 22.292 30.9476Z" fill="white"/>
<path d="M29.2429 23.9317C29.733 23.9295 30.2209 23.9993 30.6911 24.1386C31.1443 24.2722 31.5633 24.5024 31.9189 24.8131C32.266 25.1112 32.542 25.4829 32.727 25.9013C32.9174 26.3599 33.0103 26.8531 33.0002 27.3495C33.0021 27.8567 32.9149 28.3604 32.7425 28.8372C32.5764 29.3021 32.3032 29.7208 31.9448 30.06C31.5678 30.4117 31.1146 30.6723 30.6207 30.8213C29.5855 31.1444 28.4778 31.1516 27.4388 30.8422C26.9635 30.7026 26.5255 30.4597 26.1561 30.1304C25.8115 29.8278 25.5469 29.4451 25.3852 29.0163C25.2273 28.5799 25.1484 28.1188 25.1525 27.6549C25.1522 27.1285 25.2526 26.6071 25.4484 26.1186C25.6281 25.65 25.9211 25.2334 26.3017 24.9063C26.6894 24.581 27.1372 24.3347 27.6198 24.1822C28.144 24.0129 28.6919 23.9283 29.2429 23.9317ZM29.1621 25.0076C28.695 24.9963 28.2346 25.1179 27.8339 25.3582C27.4612 25.5871 27.165 25.9212 26.9825 26.3182C26.7908 26.7303 26.6932 27.1796 26.697 27.6341C26.6926 28.0531 26.787 28.4674 26.9721 28.8435C27.154 29.2098 27.4514 29.5061 27.8184 29.6867C28.1553 29.855 28.5232 29.9526 28.8993 29.9731C29.2758 29.9936 29.6519 29.9365 30.0052 29.8054C30.3037 29.6943 30.5724 29.5155 30.7903 29.2831C31.0158 29.0406 31.1857 28.752 31.288 28.4368C31.3998 28.1036 31.456 27.7541 31.4544 27.4026C31.4557 27.0767 31.4054 26.7527 31.3057 26.4426C31.2128 26.1476 31.0549 25.8773 30.843 25.6522C30.634 25.4311 30.375 25.2631 30.088 25.1617C29.7905 25.0569 29.4772 25.0048 29.1621 25.0076Z" fill="white"/>
<g opacity="0.7">
<path d="M22.9761 34.8775L23.0317 34.1398L23.0867 33.0412L23.1217 31.9602H22.9449H22.7816H22.6253L22.043 31.9779C22.0565 31.7351 22.0641 31.5506 22.0657 31.4243C22.5482 31.4243 23.056 31.4243 23.5884 31.4243H24.4944H24.9798C24.9631 31.6637 24.9549 31.8481 24.9549 31.9779C24.6501 31.9627 24.358 31.9552 24.0789 31.9552H23.8843L23.8543 32.4165L23.7817 34.1916V34.4897C23.7817 34.6122 23.7817 34.7398 23.7817 34.8724H23.3971L22.9761 34.8775Z" fill="white"/>
<path d="M27.4695 34.3046C27.4474 34.4037 27.4162 34.5825 27.3764 34.8405C27.1942 34.879 27.041 34.9052 26.9169 34.9191C26.7919 34.9327 26.6662 34.9396 26.5405 34.9396C26.3409 34.9421 26.142 34.9203 25.9478 34.8746C25.7775 34.8329 25.6203 34.7501 25.4895 34.6336C25.3582 34.5168 25.2581 34.3687 25.1987 34.2032C25.1362 34.0317 25.1049 33.8508 25.1055 33.6682C25.1036 33.463 25.1387 33.259 25.2091 33.0663C25.2723 32.886 25.3765 32.7228 25.5132 32.5895C25.6392 32.4682 25.7921 32.3782 25.9591 32.3265C26.1284 32.275 26.3046 32.2494 26.4814 32.25C26.6469 32.2491 26.8121 32.2709 26.9719 32.3141C27.1165 32.3508 27.2504 32.4218 27.3619 32.521C27.4673 32.6192 27.5501 32.7392 27.6038 32.8728C27.6619 33.018 27.6906 33.1734 27.6887 33.33C27.6884 33.4121 27.6802 33.4939 27.6638 33.5741H25.8123C25.8123 33.6363 25.8123 33.6859 25.8123 33.7232C25.811 33.8293 25.8306 33.9348 25.8701 34.0336C25.9073 34.1255 25.9654 34.2076 26.0396 34.2736C26.1164 34.3406 26.2067 34.3898 26.3046 34.4182C26.4028 34.4489 26.5048 34.4647 26.6078 34.465C26.7344 34.4637 26.8607 34.4508 26.9851 34.4268C27.149 34.3961 27.3107 34.3554 27.4695 34.3046ZM25.8382 33.2846H27.0205C27.0214 33.2249 27.0192 33.1652 27.0132 33.1055C27.0066 33.0603 26.9949 33.0161 26.9791 32.9732C26.9624 32.9258 26.9381 32.8819 26.9065 32.8428C26.8778 32.8058 26.8427 32.7739 26.8032 32.7487C26.76 32.7224 26.7129 32.7029 26.6636 32.6909C26.6078 32.6773 26.5503 32.6707 26.4928 32.671C26.4227 32.671 26.3526 32.682 26.286 32.7041C26.22 32.7256 26.1581 32.7575 26.1028 32.7995C26.0501 32.838 26.0043 32.8857 25.9673 32.94C25.9358 32.9868 25.9099 33.037 25.8909 33.09C25.8691 33.1538 25.8514 33.2186 25.8382 33.2846Z" fill="white"/>
<path d="M28.0771 34.877C28.1021 34.5931 28.1327 34.0815 28.1694 33.3429C28.2057 32.6043 28.2278 31.9667 28.2354 31.4302H28.6099C28.7094 31.4302 28.8306 31.4302 28.974 31.4302L28.914 32.352L28.8262 34.4074L28.8158 34.877C28.6778 34.877 28.5606 34.877 28.464 34.877H28.0771Z" fill="white"/>
<path d="M31.7388 34.3043C31.7167 34.4035 31.6857 34.5822 31.6456 34.8402C31.4637 34.8787 31.3106 34.9049 31.1865 34.9188C31.0614 34.9324 30.9357 34.9393 30.8097 34.9393C30.6105 34.9419 30.4112 34.9201 30.217 34.8743C30.0468 34.8326 29.8895 34.7499 29.7588 34.6333C29.6274 34.5165 29.5273 34.3684 29.4683 34.2029C29.4057 34.0315 29.3742 33.8505 29.3751 33.668C29.3729 33.4627 29.4079 33.2587 29.4784 33.0661C29.544 32.8839 29.6514 32.7193 29.7919 32.5861C29.9179 32.4648 30.0708 32.3748 30.2378 32.3233C30.4071 32.2719 30.5833 32.246 30.7602 32.2466C30.9256 32.2457 31.0908 32.2674 31.2506 32.3107C31.3952 32.3477 31.5291 32.4184 31.6406 32.5179C31.746 32.6158 31.8288 32.7358 31.8825 32.8693C31.9406 33.0149 31.9693 33.1703 31.9674 33.3266C31.9671 33.4087 31.9589 33.4905 31.9425 33.5707H30.091C30.091 33.6329 30.091 33.6825 30.091 33.7198C30.0897 33.8262 30.1093 33.9317 30.1488 34.0302C30.186 34.1221 30.2442 34.2045 30.3184 34.2702C30.3951 34.3371 30.4854 34.3867 30.5833 34.4151C30.6815 34.4455 30.7835 34.4612 30.8865 34.4616C31.0131 34.4603 31.1394 34.4477 31.2638 34.4233C31.4246 34.3933 31.5831 34.3536 31.7388 34.3043ZM30.1074 33.2843H31.2897C31.291 33.2246 31.2885 33.1649 31.2825 33.1052C31.2758 33.0601 31.2645 33.0159 31.2484 32.9729C31.2319 32.9256 31.2073 32.8817 31.176 32.8425C31.147 32.8056 31.1123 32.7737 31.0725 32.7484C31.0283 32.7212 30.9803 32.7013 30.9297 32.6893C30.8738 32.6758 30.8167 32.6691 30.7592 32.6698C30.6888 32.6698 30.619 32.6808 30.5524 32.7029C30.4864 32.7241 30.4245 32.7563 30.3692 32.798C30.3161 32.8368 30.2704 32.8845 30.2337 32.9388C30.2015 32.9852 30.1756 33.0358 30.156 33.0888C30.1355 33.1529 30.1194 33.2183 30.1074 33.2843Z" fill="white"/>
</g>
<path d="M32.7935 34.7029C33.552 34.952 34.2072 35.0764 34.7589 35.0764C34.962 35.0774 35.1641 35.0509 35.3599 34.9978C35.5317 34.9539 35.6927 34.8769 35.8348 34.7711C35.9678 34.6653 36.0707 34.526 36.1329 34.3678C36.2081 34.179 36.2561 33.9803 36.2744 33.7782C36.2981 33.5547 36.3167 33.2161 36.3303 32.7623C36.2245 32.9098 36.1061 33.0484 35.9766 33.176C35.8636 33.2815 35.7369 33.3718 35.5999 33.4438C35.4363 33.5294 35.2626 33.5941 35.0829 33.6364C34.5998 33.753 34.0939 33.7302 33.623 33.5711C33.3578 33.4789 33.1156 33.3301 32.9135 33.1346C32.6994 32.9253 32.5373 32.6682 32.4407 32.3846C32.3327 32.0821 32.2781 31.7632 32.2793 31.4423C32.2768 30.986 32.3668 30.5341 32.5443 30.1138C32.7104 29.708 32.9782 29.3518 33.3221 29.0796C33.6448 28.8197 34.0184 28.6305 34.4185 28.5238C34.8423 28.419 35.2775 28.3681 35.7139 28.3729C35.9766 28.3729 36.2744 28.3887 36.6076 28.4205C36.9407 28.4521 37.3819 28.5172 37.9307 28.6151L37.8148 30.2152L37.7116 32.2192L37.6803 34.0347C37.6711 34.2339 37.6459 34.4322 37.6048 34.6274C37.5682 34.8087 37.5031 34.9833 37.4125 35.1447C37.325 35.2978 37.2123 35.4352 37.0794 35.5511C36.9429 35.6701 36.7888 35.7664 36.6221 35.8365C36.4187 35.9186 36.2071 35.9786 35.9911 36.0156C35.7252 36.0639 35.4556 36.0876 35.1852 36.086C34.8357 36.0835 34.4867 36.063 34.1393 36.0251C33.7089 35.9774 33.282 35.9013 32.8617 35.7974L32.7935 34.7029ZM36.4816 29.5097C36.2141 29.4519 35.9419 29.4216 35.6684 29.4188C35.2917 29.4045 34.9178 29.4873 34.5821 29.6588C34.2954 29.8192 34.0642 30.0636 33.9199 30.3592C33.7661 30.6614 33.6862 30.9964 33.6871 31.3356C33.6852 31.5781 33.7336 31.8184 33.8289 32.0411C33.9161 32.2508 34.0718 32.4248 34.2707 32.5347C34.4741 32.6464 34.7027 32.7039 34.9348 32.7011C35.099 32.7026 35.2623 32.6752 35.417 32.6205C35.5677 32.5659 35.706 32.4813 35.8235 32.3723C35.9517 32.252 36.06 32.1124 36.1443 31.9583C36.2397 31.7843 36.3063 31.5955 36.3407 31.3997C36.3856 31.142 36.4152 30.8821 36.4298 30.621C36.4525 30.309 36.4708 29.9392 36.4844 29.511L36.4816 29.5097Z" fill="white"/>
<path d="M38.9482 33.637L39.0951 31.2411L39.1355 29.8466C39.1425 29.5605 39.1459 29.2725 39.1459 28.9829C39.1459 28.9324 39.1425 28.7726 39.1355 28.5029C39.4485 28.5099 39.6793 28.513 39.8274 28.513C39.9992 28.513 40.2266 28.5099 40.5092 28.5029L40.4846 29.2147C40.5818 29.0698 40.6917 28.934 40.8123 28.808C41.0009 28.6223 41.2365 28.4919 41.4941 28.4315C41.7698 28.364 42.0575 28.364 42.3332 28.4315C42.3332 28.7445 42.3483 29.1418 42.3787 29.623C42.2025 29.5725 42.0206 29.5457 41.8374 29.5425C41.6612 29.539 41.4856 29.569 41.3201 29.6303C41.1682 29.6906 41.0306 29.7819 40.9159 29.8984C40.7906 30.026 40.6905 30.1757 40.62 30.3402C40.5468 30.5158 40.4991 30.7011 40.4782 30.8903C40.452 31.0655 40.4299 31.3652 40.4119 31.7893C40.3939 32.2134 40.3851 32.6312 40.3851 33.0421C40.3851 33.2009 40.3901 33.3992 40.4006 33.638C40.1441 33.631 39.9095 33.6275 39.6973 33.6275C39.4848 33.6275 39.235 33.6307 38.9482 33.637Z" fill="white"/>
<path d="M43.3581 29.6264C43.4052 29.3839 43.4345 29.2137 43.4462 29.1164C43.4579 29.0192 43.4791 28.8711 43.5094 28.6718C43.9092 28.5745 44.3137 28.4988 44.7217 28.4441C45.0583 28.4015 45.3972 28.3797 45.7366 28.3791C46.0808 28.3759 46.4238 28.4195 46.7566 28.5082C47.0317 28.5761 47.2824 28.7192 47.4807 28.9222C47.6557 29.1104 47.7435 29.3814 47.7435 29.7351C47.7435 29.9271 47.7166 30.4159 47.6626 31.2022C47.609 31.9882 47.5771 32.8008 47.5676 33.6392C47.3118 33.6325 47.0759 33.6291 46.8599 33.6291C46.6442 33.6291 46.4026 33.6325 46.1358 33.6392C46.18 33.2318 46.2144 32.7603 46.2394 32.2251L46.3054 30.9673C46.2113 31.0314 46.1134 31.0904 46.0126 31.1441C45.9391 31.1804 45.863 31.2114 45.7853 31.2373C45.701 31.2654 45.5528 31.3093 45.3403 31.3686C45.1278 31.428 44.9576 31.4792 44.8294 31.5228C44.7097 31.5629 44.5938 31.6124 44.4826 31.6718C44.3876 31.7217 44.2998 31.7849 44.2221 31.8591C44.1567 31.9203 44.1043 31.9942 44.068 32.0763C44.0355 32.154 44.0194 32.2374 44.0203 32.3214C44.0175 32.4543 44.0614 32.5838 44.1444 32.6877C44.224 32.7888 44.3323 32.8636 44.4548 32.9028C44.5973 32.946 44.7457 32.9665 44.8944 32.9637C45.0087 32.9634 45.1227 32.9552 45.2358 32.9391C45.3997 32.911 45.5611 32.8686 45.718 32.8128C45.6211 33.0948 45.5383 33.3812 45.4707 33.6714C45.2314 33.7121 45.041 33.7374 44.8995 33.7469C44.7583 33.7566 44.627 33.7617 44.5054 33.7623C44.1488 33.7743 43.7936 33.7159 43.4595 33.5909C43.1996 33.4876 42.9855 33.294 42.8566 33.0455C42.7313 32.814 42.6646 32.5557 42.6621 32.2923C42.6634 31.9933 42.7685 31.704 42.9599 31.4741C43.0707 31.3443 43.198 31.2294 43.3385 31.1328C43.5476 30.997 43.7737 30.8899 44.0108 30.8141C44.392 30.6878 44.7804 30.5842 45.1736 30.5037C45.3021 30.4769 45.4351 30.4424 45.5731 30.4004C45.6861 30.3704 45.7966 30.3322 45.904 30.2864C45.9836 30.2517 46.0565 30.2031 46.1194 30.1428C46.175 30.0903 46.2204 30.0278 46.2526 29.9586C46.2811 29.8971 46.2959 29.8298 46.2962 29.7622C46.2987 29.6384 46.2523 29.5184 46.1667 29.4291C46.0761 29.3353 45.9605 29.2696 45.8336 29.2396C45.6858 29.203 45.5339 29.1853 45.3817 29.1869C44.7741 29.1869 44.0996 29.3334 43.3581 29.6264Z" fill="white"/>
<path d="M48.8438 33.6372C48.8905 33.0646 48.9404 32.2095 48.9928 31.0717C49.0452 29.9336 49.0714 29.0769 49.0714 28.5009C49.3575 28.5078 49.59 28.5113 49.7684 28.5113C49.9755 28.5113 50.1979 28.5078 50.4356 28.5009L50.3965 29.314C50.4862 29.1789 50.5847 29.0497 50.6914 28.9272C50.7919 28.8185 50.9084 28.7257 51.0369 28.6521C51.1923 28.5621 51.36 28.4949 51.5343 28.4522C51.7266 28.4033 51.9246 28.3786 52.1229 28.379C52.2707 28.3786 52.4179 28.3932 52.5628 28.4222C52.6954 28.4484 52.8249 28.4889 52.9484 28.5435C53.0551 28.5899 53.1555 28.6499 53.2465 28.7222C53.3254 28.7873 53.3952 28.8628 53.4533 28.9468C53.5279 29.0623 53.5904 29.1852 53.6406 29.3131C53.7044 29.2107 53.7735 29.1122 53.8474 29.0172C54.0094 28.8211 54.2144 28.6644 54.4465 28.5599C54.5848 28.4996 54.7294 28.4547 54.8779 28.4266C55.0418 28.3941 55.2085 28.3783 55.3755 28.379C55.6575 28.3771 55.938 28.4257 56.2029 28.5226C56.4483 28.6082 56.6618 28.7668 56.8143 28.9768C56.9687 29.2035 57.0464 29.4735 57.0369 29.7476C57.0369 29.909 57.0252 30.1461 57.0015 30.4594C56.9782 30.7723 56.9501 31.2833 56.9169 31.9922C56.8838 32.7012 56.8654 33.2494 56.862 33.6362C56.6156 33.6293 56.3981 33.6258 56.2092 33.6258C55.9866 33.6258 55.7251 33.6293 55.4251 33.6362C55.4554 33.2017 55.4842 32.7473 55.511 32.2726L55.572 31.1162C55.5893 30.8232 55.5979 30.5756 55.5979 30.3735C55.6095 30.1843 55.5701 29.9958 55.4842 29.8272C55.4172 29.7119 55.3171 29.62 55.1965 29.5635C55.073 29.5095 54.9391 29.4826 54.8043 29.4849C54.6619 29.4823 54.5204 29.5117 54.3906 29.5707C54.2567 29.6371 54.1395 29.7324 54.047 29.8499C53.9384 29.9832 53.8553 30.1354 53.802 30.299C53.7334 30.5326 53.6914 30.7736 53.6769 31.0168C53.6501 31.3253 53.6283 31.7298 53.6115 32.2313L53.5765 33.6353C53.2964 33.6283 53.0636 33.6249 52.8783 33.6249C52.6926 33.6249 52.4447 33.6283 52.1343 33.6353C52.158 33.3757 52.1924 32.8455 52.2379 32.044C52.2833 31.2429 52.3051 30.7022 52.3029 30.4231C52.3051 30.2967 52.2934 30.1704 52.2679 30.0466C52.2423 29.9396 52.193 29.8395 52.1242 29.7536C52.0575 29.6649 51.9701 29.5938 51.8696 29.5468C51.7626 29.5013 51.6473 29.4792 51.5314 29.4817C51.3025 29.4792 51.0814 29.5622 50.9106 29.7144C50.7249 29.8809 50.5894 30.0959 50.5196 30.3353C50.4369 30.5945 50.3772 31.0985 50.3406 31.8476C50.304 32.5966 50.2856 33.1916 50.2856 33.6331C49.9768 33.6261 49.7434 33.6226 49.5855 33.6226C49.4062 33.6255 49.1589 33.6302 48.8438 33.6372Z" fill="white"/>
</svg>
