<svg width="62" height="60" viewBox="0 0 62 60" fill="none" xmlns="http://www.w3.org/2000/svg">
<path d="M3.93734 14.0918C-1.55195 22.0175 -0.868608 32.3287 3.32473 40.7499C3.42443 40.9518 3.52893 41.1504 3.63184 41.3491C3.69778 41.4751 3.75966 41.6043 3.828 41.7287C3.8666 41.8029 3.90999 41.8756 3.9502 41.9467C4.02173 42.0808 4.0949 42.2084 4.16886 42.3392C4.2991 42.5701 4.43256 42.7995 4.56922 43.0289C4.64479 43.1548 4.71956 43.2808 4.79754 43.4068C4.94868 43.6523 5.10384 43.8946 5.26221 44.1369C5.32815 44.2402 5.39245 44.3436 5.45998 44.4437C5.67865 44.7716 5.90214 45.0979 6.13285 45.4193C6.13858 45.4276 6.14487 45.4371 6.15212 45.4451C6.18834 45.4968 6.22851 45.5468 6.26547 45.5985C6.46485 45.8747 6.67066 46.1477 6.87888 46.4174C6.95527 46.5159 7.03242 46.6145 7.1096 46.713C7.29532 46.9472 7.48424 47.1798 7.67638 47.4123C7.74792 47.4996 7.82028 47.5868 7.89263 47.6724C8.1507 47.9777 8.41358 48.2813 8.68208 48.5785C8.68702 48.5831 8.69336 48.5898 8.69813 48.5946C8.70941 48.6075 8.71904 48.6156 8.72866 48.6285C8.99075 48.916 9.25926 49.197 9.53102 49.4781C9.61542 49.5653 9.70145 49.6525 9.78827 49.7381C9.9989 49.9513 10.2127 50.1613 10.429 50.3697C10.5166 50.4536 10.6035 50.5392 10.6911 50.62C10.9797 50.893 11.2715 51.1611 11.569 51.4228C11.5739 51.4274 11.5778 51.431 11.5826 51.4341C11.6333 51.4793 11.6855 51.5213 11.7354 51.5649C11.9975 51.7926 12.2644 52.0188 12.5329 52.2417C12.6422 52.3305 12.7532 52.4177 12.8633 52.5066C13.0828 52.6826 13.3046 52.8571 13.5281 53.0283C13.6463 53.1187 13.7645 53.2092 13.8835 53.2996C14.1303 53.4821 14.3787 53.6614 14.6295 53.8375C14.7212 53.9037 14.8096 53.9683 14.9012 54.0313C14.9269 54.0491 14.9503 54.0668 14.976 54.0846C15.214 54.2494 15.4575 54.4076 15.7004 54.5659C15.8049 54.6354 15.9086 54.7081 16.0139 54.7759C16.3869 55.0133 16.7656 55.2475 17.1483 55.4737C17.252 55.5335 17.3573 55.5916 17.4618 55.6513C17.7432 55.8145 18.0261 55.9744 18.3131 56.131C18.4683 56.215 18.6275 56.2942 18.7842 56.3749C18.9868 56.4815 19.1878 56.5897 19.3936 56.6931C19.4402 56.7158 19.4885 56.7384 19.5343 56.7609C19.6171 56.8013 19.7007 56.8401 19.7835 56.8821C20.1027 57.0355 20.4243 57.1857 20.7491 57.3311C20.8182 57.3618 20.8849 57.3925 20.9533 57.4231C21.3255 57.5863 21.7009 57.7429 22.0796 57.8932C22.1704 57.9303 22.2621 57.9658 22.3537 58.0014C22.7042 58.137 23.0596 58.2711 23.4165 58.3971C23.4616 58.4132 23.505 58.4278 23.55 58.4439C23.9415 58.5811 24.3371 58.7087 24.735 58.8331C24.8298 58.8606 24.9255 58.8913 25.0212 58.9187C25.4264 59.0415 25.8268 59.1884 26.2448 59.266C52.7922 64.1293 60.5036 43.2401 60.5036 43.2401C54.0271 51.7161 42.5309 53.9516 31.6386 51.4627C31.2261 51.3691 30.8258 51.2398 30.423 51.1203C30.3209 51.0896 30.2204 51.059 30.1199 51.0283C29.7268 50.9071 29.3369 50.7795 28.9494 50.6455C28.8963 50.6261 28.8425 50.6067 28.7886 50.5873C28.4413 50.4646 28.098 50.3353 27.7564 50.2029C27.6599 50.1641 27.5634 50.127 27.467 50.0882C27.0923 49.9396 26.7201 49.7846 26.3527 49.6231C26.2771 49.5907 26.2048 49.5568 26.13 49.5245C25.8141 49.3808 25.5013 49.2354 25.1902 49.0852C25.1002 49.0416 25.0101 48.9996 24.9185 48.9544C24.6741 48.8346 24.4324 48.7069 24.1914 48.5826C24.03 48.4972 23.8661 48.4165 23.706 48.3272C23.4116 48.1691 23.1225 48.0044 22.8347 47.8363C22.7372 47.7814 22.6385 47.7285 22.5403 47.6716C22.1577 47.4453 21.7797 47.2111 21.4056 46.9736C21.3022 46.9075 21.2014 46.8367 21.0994 46.7685C20.828 46.5926 20.558 46.4133 20.2919 46.2294C20.2037 46.1692 20.1187 46.105 20.0318 46.0454C19.7749 45.8628 19.5207 45.6783 19.2685 45.491C19.1539 45.4057 19.0413 45.3197 18.93 45.2344C18.6988 45.0564 18.469 44.8771 18.2411 44.6932C18.1382 44.6108 18.0353 44.5284 17.934 44.4461C17.6446 44.207 17.3584 43.9664 17.0762 43.7193C17.0465 43.6935 17.0143 43.6676 16.9821 43.6401C16.6766 43.3704 16.3768 43.0942 16.0801 42.8164C15.9941 42.734 15.9105 42.6533 15.8261 42.5709C15.6066 42.3609 15.3904 42.1493 15.1781 41.9329C15.0929 41.8473 15.0077 41.7633 14.9241 41.6777C14.654 41.3999 14.3887 41.1189 14.129 40.833C14.1161 40.8185 14.1025 40.8056 14.0896 40.791C13.8147 40.489 13.5462 40.1805 13.2833 39.8688C13.2117 39.7832 13.1426 39.7008 13.0718 39.6168C12.8757 39.3794 12.6811 39.1387 12.4914 38.8964C12.4202 38.8091 12.3491 38.7198 12.2786 38.6298C12.0501 38.3321 11.8269 38.0351 11.6082 37.7334C5.56091 29.4472 3.38844 18.0185 8.22178 8.63281" fill="#0868AC"/>
<path d="M20.9775 7.41519C17.0077 13.1539 17.2231 20.8358 20.3198 26.9051C20.8392 27.9227 21.4228 28.9095 22.0756 29.8496C22.6705 30.7056 23.3298 31.7248 24.1192 32.4128C24.4054 32.7294 24.7045 33.0379 25.0099 33.3415C25.0871 33.4207 25.1659 33.4966 25.2447 33.5741C25.5413 33.8632 25.8428 34.1475 26.1547 34.4237C26.1676 34.4334 26.1788 34.4463 26.1917 34.4561C26.195 34.4594 26.1983 34.4607 26.2005 34.4643C26.5454 34.768 26.9015 35.0603 27.2633 35.3478C27.3437 35.4091 27.4233 35.4738 27.5045 35.5368C27.8671 35.8162 28.2369 36.0908 28.6163 36.3524C28.6276 36.3607 28.6372 36.3686 28.6485 36.3766C28.8157 36.4929 28.9862 36.6012 29.1558 36.7126C29.237 36.7659 29.3142 36.8224 29.3962 36.8725C29.6671 37.0469 29.9412 37.2165 30.2202 37.3797C30.2596 37.4039 30.2982 37.4249 30.3368 37.4475C30.5771 37.5864 30.8207 37.7237 31.0652 37.8561C31.1504 37.9045 31.2372 37.9465 31.324 37.9918C31.4928 38.0806 31.6617 38.1711 31.8337 38.2567C31.8594 38.2696 31.886 38.2809 31.9108 38.2923C32.2606 38.4651 32.6135 38.6314 32.9737 38.7897C33.0508 38.8237 33.1304 38.8543 33.2084 38.8866C33.4962 39.0094 33.7872 39.1289 34.0798 39.242C34.2036 39.2888 34.3291 39.334 34.4529 39.3793C34.7182 39.4778 34.9843 39.5682 35.2528 39.6587C35.3742 39.6974 35.4932 39.7378 35.6146 39.775C35.9964 39.8945 36.3734 40.0447 36.7714 40.1109C57.2685 43.5221 62.0004 27.6694 62.0004 27.6694C57.7348 33.8409 49.4742 36.7852 40.659 34.4869C40.2675 34.3835 39.8816 34.2705 39.4981 34.1493C39.3808 34.1138 39.2658 34.0751 39.1492 34.0363C38.8767 33.9474 38.6058 33.8538 38.3373 33.7552C38.2143 33.71 38.0913 33.6648 37.9707 33.6179C37.6764 33.5049 37.3854 33.387 37.0968 33.2642C37.018 33.2303 36.9384 33.1997 36.8612 33.1641C36.4995 33.0058 36.1433 32.8394 35.792 32.665C35.6111 32.5762 35.4335 32.4825 35.2558 32.3904C35.1529 32.3372 35.0492 32.2838 34.9463 32.2305C34.718 32.1061 34.4913 31.9769 34.2677 31.8461C34.2147 31.8154 34.1592 31.7863 34.1054 31.754C33.828 31.5909 33.5547 31.4229 33.2837 31.2501C33.2001 31.1968 33.1197 31.1387 33.0361 31.0837C32.8576 30.9675 32.6791 30.8496 32.5039 30.73C32.126 30.4684 31.7586 30.1938 31.3961 29.916C31.3125 29.8497 31.2289 29.7851 31.1469 29.7189C27.2882 26.6585 24.2298 22.4767 22.7756 17.7345C21.2517 12.8164 21.5803 7.29559 24.2206 2.81543" fill="#0868AC"/>
<path d="M35.308 2.42575C32.9677 5.88544 32.7378 10.182 34.3617 14.0033C36.0741 18.059 39.5833 21.2409 43.6787 22.7492C43.8475 22.8123 44.0163 22.8688 44.1876 22.9269C44.2623 22.9495 44.3363 22.9754 44.4119 22.9979C44.653 23.0739 44.8926 23.1627 45.1418 23.2095C56.4596 25.4061 59.5292 17.3755 60.3465 16.1936C57.6574 20.0829 53.1384 21.0164 47.5937 19.6646C47.1558 19.5574 46.6744 19.3986 46.2522 19.2484C45.7109 19.0546 45.1774 18.8336 44.6591 18.5836C43.6745 18.1085 42.736 17.5317 41.866 16.8714C36.9043 13.0899 33.8221 5.87542 37.0597 0" fill="#0868AC"/>
</svg>
