<svg width="58" height="60" viewBox="0 0 58 60" fill="none" xmlns="http://www.w3.org/2000/svg">
<path fill-rule="evenodd" clip-rule="evenodd" d="M57.5662 13.3429C57.5875 13.4216 57.5984 13.5026 57.5986 13.5841V26.2441C57.5986 26.4066 57.5555 26.5662 57.4736 26.7068C57.3918 26.8474 57.274 26.964 57.1323 27.0448L46.4499 33.1625V45.2883C46.4499 45.6183 46.2736 45.9229 45.9859 46.0891L23.6872 58.8575C23.6362 58.8864 23.5805 58.9049 23.5248 58.9245C23.5039 58.9314 23.4842 58.9441 23.4622 58.9499C23.3063 58.9907 23.1424 58.9907 22.9866 58.9499C22.961 58.9429 22.9378 58.9291 22.9135 58.9198C22.8624 58.9014 22.8091 58.8852 22.7604 58.8575L0.46632 46.0891C0.324693 46.0082 0.207014 45.8915 0.125146 45.7509C0.0432777 45.6103 0.000112218 45.4508 0 45.2883L0 7.30831C0 7.22524 0.0116 7.14447 0.03248 7.06601C0.03944 7.03947 0.05568 7.01524 0.06496 6.9887C0.08236 6.94024 0.0986 6.89062 0.12412 6.84562C0.14152 6.81562 0.16704 6.79139 0.18792 6.7637C0.2146 6.72677 0.23896 6.6887 0.27028 6.65639C0.29696 6.62985 0.33176 6.61024 0.36192 6.58716C0.39556 6.55947 0.42572 6.52947 0.464 6.50754L11.6128 0.123313C11.7539 0.0425213 11.9139 0 12.0768 0C12.2396 0 12.3996 0.0425213 12.5408 0.123313L23.6884 6.50754H23.6907C23.7278 6.53062 23.7591 6.55947 23.7928 6.58601C23.8229 6.60908 23.8566 6.62985 23.8832 6.65524C23.9157 6.6887 23.9389 6.72677 23.9668 6.7637C23.9865 6.79139 24.0132 6.81562 24.0294 6.84562C24.0561 6.89177 24.0712 6.94024 24.0897 6.9887C24.099 7.01524 24.1152 7.03947 24.1222 7.06716C24.1436 7.14579 24.1545 7.22686 24.1547 7.30831V31.0302L33.444 25.7098V13.5829C33.444 13.5022 33.4556 13.4202 33.4764 13.3429C33.4846 13.3152 33.4996 13.291 33.5089 13.2645C33.5275 13.216 33.5437 13.1664 33.5692 13.1214C33.5866 13.0914 33.6122 13.0672 33.6319 13.0395C33.6597 13.0025 33.6829 12.9645 33.7154 12.9322C33.7421 12.9056 33.7757 12.886 33.8059 12.8629C33.8407 12.8352 33.8708 12.8052 33.908 12.7833L45.0579 6.39908C45.199 6.31818 45.359 6.27559 45.5219 6.27559C45.6848 6.27559 45.8448 6.31818 45.9859 6.39908L57.1335 12.7833C57.1729 12.8064 57.2031 12.8352 57.2379 12.8618C57.2669 12.8849 57.3005 12.9056 57.3272 12.931C57.3597 12.9645 57.3829 13.0025 57.4107 13.0395C57.4316 13.0672 57.4571 13.0914 57.4734 13.1214C57.5 13.1664 57.5151 13.216 57.5337 13.2645C57.5441 13.291 57.5592 13.3152 57.5662 13.3429ZM55.7403 25.7098V15.1822L51.8392 17.416L46.4499 20.5025V31.0302L55.7415 25.7098H55.7403ZM44.5927 44.7541V34.2195L39.2915 37.231L24.1535 45.8249V56.4587L44.5927 44.7541ZM1.85832 8.90639V44.7541L22.2952 56.4575V45.826L11.6186 39.8156L11.6151 39.8133L11.6104 39.811C11.5745 39.7902 11.5443 39.7602 11.5107 39.7349C11.4817 39.7118 11.448 39.6933 11.4225 39.6679L11.4202 39.6645C11.39 39.6356 11.3692 39.5998 11.3436 39.5675C11.3204 39.5364 11.2926 39.5099 11.274 39.4775L11.2729 39.4741C11.252 39.4395 11.2392 39.3979 11.2242 39.3587C11.2091 39.3241 11.1894 39.2918 11.1801 39.2548C11.1685 39.211 11.1662 39.1637 11.1615 39.1187C11.1569 39.0841 11.1476 39.0495 11.1476 39.0148V39.0125V14.2268L5.7594 11.1391L1.85832 8.90639ZM12.0779 1.99024L2.7898 7.30831L12.0756 12.6264L21.3626 7.30716L12.0756 1.99024H12.0779ZM16.9082 35.1795L22.2964 32.0941V8.90639L18.3953 11.1402L13.0059 14.2268V37.4145L16.9082 35.1795ZM45.5219 8.26601L36.2349 13.5841L45.5219 18.9022L54.8077 13.5829L45.5219 8.26601ZM44.5927 20.5025L39.2034 17.416L35.3023 15.1822V25.7098L40.6905 28.7952L44.5927 31.0302V20.5025ZM23.2232 44.2268L36.8451 36.4914L43.6543 32.626L34.3743 27.3114L23.6895 33.4302L13.9513 39.0068L23.2232 44.2268Z" fill="#FF2D20"/>
</svg>
