<svg width="68" height="60" viewBox="0 0 68 60" fill="none" xmlns="http://www.w3.org/2000/svg">
<g clip-path="url(#clip0_523_212)">
<path d="M34.0003 36.0107C37.3476 36.0107 40.0612 33.3196 40.0612 30C40.0612 26.6803 37.3476 23.9893 34.0003 23.9893C30.653 23.9893 27.9395 26.6803 27.9395 30C27.9395 33.3196 30.653 36.0107 34.0003 36.0107Z" fill="#61DAFB"/>
<path d="M34.0003 42.3148C51.9615 42.3148 66.522 36.8013 66.522 30.0002C66.522 23.199 51.9615 17.6855 34.0003 17.6855C16.039 17.6855 1.47852 23.199 1.47852 30.0002C1.47852 36.8013 16.039 42.3148 34.0003 42.3148Z" stroke="#61DAFB"/>
<path d="M23.2465 36.1573C32.2271 51.5835 44.322 61.3321 50.2611 57.9315C56.2003 54.531 53.7347 39.2689 44.754 23.8427C35.7734 8.41651 23.6785 -1.33215 17.7394 2.06844C11.8002 5.46903 14.2659 20.7311 23.2465 36.1573Z" stroke="#61DAFB"/>
<path d="M23.2462 23.8425C14.2656 39.2687 11.8 54.5308 17.7391 57.9314C23.6783 61.332 35.7731 51.5833 44.7538 36.1571C53.7344 20.731 56.2 5.46886 50.2609 2.06828C44.3217 -1.33231 32.2269 8.41635 23.2462 23.8425Z" stroke="#61DAFB"/>
</g>
<defs>
<clipPath id="clip0_523_212">
<rect width="68" height="60" fill="white"/>
</clipPath>
</defs>
</svg>
