<svg width="67" height="60" viewBox="0 0 67 60" fill="none" xmlns="http://www.w3.org/2000/svg">
<g clip-path="url(#clip0_523_207)">
<path d="M33.6176 23.5547C30.0734 23.5547 27.2002 26.4141 27.2002 29.9414C27.2002 33.4687 30.0734 36.3281 33.6176 36.3281C37.1618 36.3281 40.035 33.4687 40.035 29.9414C40.035 26.4141 37.1618 23.5547 33.6176 23.5547Z" fill="#087EA4"/>
<path d="M66.9953 29.9993C66.9953 24.9853 62.3298 20.5877 54.9013 17.6936C55.0006 17.0418 55.0904 16.3971 55.1542 15.7642C55.8869 8.55955 54.1427 3.3596 50.2453 1.11963C45.8846 -1.38623 39.7254 0.432574 33.4976 5.39252C27.2699 0.432574 21.1106 -1.38623 16.75 1.11963C12.8526 3.3596 11.1084 8.55955 11.841 15.7642C11.9049 16.3971 11.9923 17.0442 12.0939 17.6983C11.4747 17.9336 10.8673 18.183 10.2835 18.4442C3.65158 21.4112 0 25.5194 0 29.9993C0 35.0134 4.66551 39.411 12.0939 42.3051C11.9923 42.9569 11.9049 43.6016 11.841 44.2345C11.1084 51.4391 12.8526 56.6391 16.75 58.8791C18.09 59.6353 19.6083 60.0219 21.1484 59.999C24.8402 59.999 29.1512 58.0649 33.4976 54.6062C37.8417 58.0649 42.1551 59.999 45.8516 59.999C47.3916 60.0215 48.9099 59.6349 50.25 58.8791C54.1474 56.6391 55.8916 51.4391 55.1589 44.2345C55.0951 43.6016 55.0053 42.9569 54.9061 42.3051C62.3345 39.4157 67 35.0111 67 29.9993M45.8232 3.17608C46.8135 3.1523 47.7923 3.39104 48.6594 3.86783C51.3656 5.42311 52.5804 9.64189 51.9895 15.4418C51.9493 15.8371 51.9021 16.2371 51.8454 16.6395C48.7566 15.7134 45.5936 15.053 42.3914 14.6654C40.4502 12.0966 38.2916 9.69802 35.9391 7.49603C39.6332 4.65371 43.1005 3.17608 45.8208 3.17608M44.5516 36.3522C43.3563 38.4177 42.0546 40.4203 40.6519 42.3522C38.2742 42.5953 35.8855 42.7163 33.4953 42.7145C31.1059 42.7162 28.7179 42.5952 26.341 42.3522C24.942 40.4202 23.6443 38.4176 22.4531 36.3522C21.2578 34.2925 20.1715 32.172 19.1986 29.9993C20.1715 27.8267 21.2578 25.7062 22.4531 23.6465C23.6424 21.5894 24.9361 19.5939 26.3292 17.6677C28.7105 17.4185 31.1033 17.2944 33.4976 17.2959C35.8871 17.2945 38.275 17.4154 40.6519 17.6583C42.0497 19.5874 43.3482 21.5861 44.5422 23.6465C45.7366 25.7067 46.8229 27.8272 47.7967 29.9993C46.8229 32.1715 45.7366 34.292 44.5422 36.3522M49.4228 33.9993C50.1729 36.0356 50.7887 38.1184 51.2663 40.2345C49.1937 40.8778 47.081 41.3847 44.9416 41.7522C45.7547 40.5318 46.5425 39.262 47.3051 37.9428C48.059 36.6393 48.7657 35.324 49.4322 34.0087M29.0094 45.7474C30.4795 45.8368 31.9803 45.8886 33.5 45.8886C35.0197 45.8886 36.53 45.8368 38.0024 45.7474C36.6063 47.4121 35.1023 48.9841 33.5 50.4533C31.9011 48.9843 30.401 47.4123 29.0094 45.7474ZM22.056 41.7475C19.916 41.3817 17.8024 40.8763 15.729 40.2345C16.2046 38.1218 16.8181 36.0421 17.5654 34.0087C18.2224 35.324 18.9268 36.6393 19.6925 37.9428C20.4583 39.2463 21.2501 40.531 22.056 41.7522M17.5654 25.9876C16.8208 23.9618 16.2089 21.89 15.7337 19.7853C17.802 19.1429 19.9099 18.6343 22.0442 18.263C21.2359 19.4794 20.4441 20.7406 19.6807 22.0559C18.9173 23.3712 18.2201 24.67 17.5536 25.9876M37.9883 14.2489C36.5182 14.1595 35.0174 14.1077 33.4858 14.1077C31.9669 14.1077 30.47 14.1548 28.9952 14.2489C30.3869 12.584 31.887 11.012 33.4858 9.54307C35.0887 11.0116 36.5928 12.5836 37.9883 14.2489ZM47.3004 22.0559C46.5346 20.7351 45.7428 19.4645 44.9251 18.2442C47.0701 18.6116 49.1884 19.1194 51.2663 19.7641C50.7895 21.8766 50.1761 23.9563 49.4299 25.99C48.7728 24.6747 48.0661 23.3594 47.3027 22.0582M15.0152 15.4442C14.4172 9.6466 15.6392 5.42547 18.343 3.87019C19.2104 3.39413 20.189 3.15544 21.1792 3.17843C23.8995 3.17843 27.3668 4.65606 31.0609 7.49839C28.7069 9.70194 26.5466 12.102 24.6039 14.6724C21.4025 15.0619 18.24 15.7199 15.1499 16.6395C15.0956 16.2371 15.0459 15.8395 15.0081 15.4442M11.5929 21.3406C11.9569 21.1837 12.3279 21.0269 12.7061 20.87C13.4495 23.9925 14.4576 27.0465 15.7195 29.9993C14.4552 32.958 13.4463 36.0184 12.7037 39.1475C6.68157 36.6887 3.1907 33.2817 3.1907 29.9993C3.1907 26.8888 6.26323 23.7335 11.5929 21.3406ZM18.343 56.1285C15.6392 54.5732 14.4172 50.3521 15.0152 44.5545C15.053 44.1592 15.1027 43.7616 15.157 43.3569C18.2459 44.2826 21.4088 44.9431 24.6109 45.331C26.5528 47.9007 28.7114 50.3008 31.0632 52.505C25.9132 56.465 21.2075 57.7708 18.3501 56.1285M51.9872 44.5545C52.578 50.3544 51.3632 54.5732 48.657 56.1285C45.8019 57.7755 41.0939 56.465 35.9462 52.505C38.2973 50.3007 40.4551 47.9006 42.3961 45.331C45.5984 44.9433 48.7613 44.2829 51.8501 43.3569C51.9068 43.7616 51.9541 44.1592 51.9942 44.5545M54.3057 39.1428C53.561 36.0155 52.5514 32.9568 51.2876 29.9993C52.5508 27.0403 53.5597 23.98 54.3034 20.8512C60.3137 23.31 63.814 26.717 63.814 29.9993C63.814 33.2817 60.3232 36.6887 54.301 39.1475" fill="#087EA4"/>
</g>
<defs>
<clipPath id="clip0_523_207">
<rect width="67" height="60" fill="white"/>
</clipPath>
</defs>
</svg>
