<svg width="74" height="110" viewBox="0 0 74 110" fill="none" xmlns="http://www.w3.org/2000/svg">
<g clip-path="url(#clip0_287_28)">
<path d="M37 55.0002C37 44.9782 45.1245 36.8535 55.1467 36.8535C65.1687 36.8535 73.2934 44.9782 73.2934 55.0002C73.2934 65.0224 65.1687 73.1469 55.1467 73.1469C45.1245 73.1469 37 65.0224 37 55.0002Z" fill="#1ABCFE"/>
<path d="M0.707031 91.2932C0.707031 81.2712 8.83157 73.1465 18.8537 73.1465H37.0004V91.2932C37.0004 101.315 28.8759 109.44 18.8537 109.44C8.83157 109.44 0.707031 101.315 0.707031 91.2932Z" fill="#0ACF83"/>
<path d="M37 0.560059V36.8533H55.1467C65.1689 36.8533 73.2934 28.7289 73.2934 18.7067C73.2934 8.68461 65.1689 0.560059 55.1467 0.560059H37Z" fill="#FF7262"/>
<path d="M0.707031 18.7067C0.707031 28.7289 8.83157 36.8533 18.8537 36.8533H37.0004V0.560059H18.8537C8.83157 0.560059 0.707031 8.6846 0.707031 18.7067Z" fill="#F24E1E"/>
<path d="M0.707031 55.0002C0.707031 65.0224 8.83157 73.1469 18.8537 73.1469H37.0004V36.8535H18.8537C8.83157 36.8535 0.707031 44.9782 0.707031 55.0002Z" fill="#A259FF"/>
</g>
<defs>
<clipPath id="clip0_287_28">
<rect width="73.3333" height="110" fill="white" transform="translate(0.333496)"/>
</clipPath>
</defs>
</svg>
