<svg width="30" height="30" viewBox="0 0 30 30" fill="none" xmlns="http://www.w3.org/2000/svg">
<path d="M15 20.6897H8.2C7.07989 20.6897 6.51984 20.6897 6.09202 20.4641C5.71569 20.2658 5.40973 19.9493 5.21799 19.56C5 19.1175 5 18.538 5 17.3793V7.44828C5 6.28955 5 5.71019 5.21799 5.26762C5.40973 4.87831 5.71569 4.5618 6.09202 4.36345C6.51984 4.13794 7.07989 4.13794 8.2 4.13794H8.6C10.8402 4.13794 11.9603 4.13794 12.816 4.58894C13.5686 4.98567 14.1805 5.61869 14.564 6.39729C15 7.28244 15 8.44117 15 10.7586M15 20.6897V10.7586M15 20.6897H21.8C22.9201 20.6897 23.4802 20.6897 23.908 20.4641C24.2843 20.2658 24.5903 19.9493 24.782 19.56C25 19.1175 25 18.538 25 17.3793V7.44828C25 6.28955 25 5.71019 24.782 5.26762C24.5903 4.87831 24.2843 4.5618 23.908 4.36345C23.4802 4.13794 22.9201 4.13794 21.8 4.13794H21.4C19.1598 4.13794 18.0397 4.13794 17.184 4.58894C16.4314 4.98567 15.8195 5.61869 15.436 6.39729C15 7.28244 15 8.44117 15 10.7586" stroke="#333333" stroke-width="2" stroke-linecap="round" stroke-linejoin="round"/>
</svg>
