<svg width="30" height="29" viewBox="0 0 30 29" fill="none" xmlns="http://www.w3.org/2000/svg">
<g filter="url(#filter0_d_313_5)">
<path d="M15 20H8.2C7.07989 20 6.51984 20 6.09202 19.782C5.71569 19.5903 5.40973 19.2843 5.21799 18.908C5 18.4802 5 17.9201 5 16.8V7.2C5 6.07989 5 5.51984 5.21799 5.09202C5.40973 4.71569 5.71569 4.40973 6.09202 4.21799C6.51984 4 7.07989 4 8.2 4H8.6C10.8402 4 11.9603 4 12.816 4.43597C13.5686 4.81947 14.1805 5.43139 14.564 6.18404C15 7.03968 15 8.15979 15 10.4M15 20V10.4M15 20H21.8C22.9201 20 23.4802 20 23.908 19.782C24.2843 19.5903 24.5903 19.2843 24.782 18.908C25 18.4802 25 17.9201 25 16.8V7.2C25 6.07989 25 5.51984 24.782 5.09202C24.5903 4.71569 24.2843 4.40973 23.908 4.21799C23.4802 4 22.9201 4 21.8 4H21.4C19.1598 4 18.0397 4 17.184 4.43597C16.4314 4.81947 15.8195 5.43139 15.436 6.18404C15 7.03968 15 8.15979 15 10.4" stroke="#333333" stroke-width="2" stroke-linecap="round" stroke-linejoin="round"/>
</g>
<defs>
<filter id="filter0_d_313_5" x="-1" y="0" width="32" height="32" filterUnits="userSpaceOnUse" color-interpolation-filters="sRGB">
<feFlood flood-opacity="0" result="BackgroundImageFix"/>
<feColorMatrix in="SourceAlpha" type="matrix" values="0 0 0 0 0 0 0 0 0 0 0 0 0 0 0 0 0 0 127 0" result="hardAlpha"/>
<feOffset dy="4"/>
<feGaussianBlur stdDeviation="2"/>
<feComposite in2="hardAlpha" operator="out"/>
<feColorMatrix type="matrix" values="0 0 0 0 0 0 0 0 0 0 0 0 0 0 0 0 0 0 0.25 0"/>
<feBlend mode="normal" in2="BackgroundImageFix" result="effect1_dropShadow_313_5"/>
<feBlend mode="normal" in="SourceGraphic" in2="effect1_dropShadow_313_5" result="shape"/>
</filter>
</defs>
</svg>
