<svg width="43" height="112" viewBox="0 0 43 112" fill="none" xmlns="http://www.w3.org/2000/svg">
<path d="M13.7197 35.5667H29.2803C29.5186 35.5667 29.7238 35.7353 29.7705 35.969L35.1045 62.635C35.1663 62.9443 34.9296 63.2334 34.6143 63.2336H8.38672C8.07124 63.2336 7.83461 62.9444 7.89648 62.635L13.2295 35.969C13.2704 35.7644 13.4331 35.6098 13.6328 35.5745L13.7197 35.5667Z" fill="#707070" stroke="black"/>
<path d="M22.374 38.5L14.3535 46.5205L13.1855 47.6875L13.5098 46.0684L14.9434 38.9023L15.0234 38.5H22.374Z" stroke="black"/>
<path d="M31.0947 49.9297L32.5283 59.9629L32.6094 60.5332H20.9131L21.6201 59.708L30.2207 49.6748L30.9385 48.8359L31.0947 49.9297Z" stroke="black"/>
<path d="M21.5 35.0667L21.0041 -89.9563L21 -91" stroke="black" stroke-width="2"/>
<path d="M22.624 29.8333L24.9912 34.5667H18.0088L20.376 29.8333H22.624Z" fill="black" stroke="black"/>
<path d="M10.0333 63.7334L0 111.033H43L32.9667 63.7334H10.0333Z" fill="url(#paint0_linear_485_77)"/>
<mask id="path-7-inside-1_485_77" fill="white">
<path d="M30.2 62.6C30.2 63.7294 29.9776 64.8477 29.5454 65.8911C29.1132 66.9345 28.4797 67.8825 27.6811 68.6811C26.8825 69.4797 25.9345 70.1132 24.8911 70.5454C23.8477 70.9776 22.7294 71.2 21.6 71.2C20.4706 71.2 19.3523 70.9776 18.3089 70.5454C17.2655 70.1132 16.3175 69.4797 15.5189 68.6811C14.7203 67.8825 14.0868 66.9345 13.6546 65.8911C13.2224 64.8477 13 63.7294 13 62.6L21.6 62.6H30.2Z"/>
</mask>
<path d="M30.2 62.6C30.2 63.7294 29.9776 64.8477 29.5454 65.8911C29.1132 66.9345 28.4797 67.8825 27.6811 68.6811C26.8825 69.4797 25.9345 70.1132 24.8911 70.5454C23.8477 70.9776 22.7294 71.2 21.6 71.2C20.4706 71.2 19.3523 70.9776 18.3089 70.5454C17.2655 70.1132 16.3175 69.4797 15.5189 68.6811C14.7203 67.8825 14.0868 66.9345 13.6546 65.8911C13.2224 64.8477 13 63.7294 13 62.6L21.6 62.6H30.2Z" fill="white" fill-opacity="0.25" stroke="black" stroke-width="2" mask="url(#path-7-inside-1_485_77)"/>
<defs>
<linearGradient id="paint0_linear_485_77" x1="21.5" y1="63.7334" x2="21.5" y2="111.033" gradientUnits="userSpaceOnUse">
<stop stop-color="#707070"/>
<stop offset="1" stop-color="#171717"/>
</linearGradient>
</defs>
</svg>
