<svg width="87" height="94" viewBox="0 0 87 94" fill="none" xmlns="http://www.w3.org/2000/svg">
<circle cx="40" cy="49" r="39" stroke="#004936" stroke-width="2"/>
<circle cx="40" cy="49" r="34" stroke="#004936" stroke-width="2"/>
<path d="M21.0839 79.7518C16.0273 72.609 11.2539 66.6236 12.366 54.6503C15.0148 42.1977 26.5993 31.5662 35.2577 29.7943C45.7938 27.5177 54.7972 28.4064 60.0543 18.6006C61.4749 14.1436 61.6694 12.5605 61.8293 10.7112C61.7165 16.006 60.9587 24.547 57.9648 34.339C55.9483 40.3659 55.5396 41.3238 50.8239 47.0852C46.8839 51.6359 43.1728 54.8695 35.7924 60.6315C30.094 66.0074 29.1657 68.0962 26.9403 77.6486C26.365 84.9323 26.2733 87.0241 26.3043 87.2489C26.3101 87.2512 26.3155 87.2528 26.3205 87.2538C26.3137 87.276 26.3081 87.2764 26.3043 87.2489C25.8089 87.0552 22.6292 82.1887 21.0839 79.7518Z" fill="#008562"/>
<path d="M29.4029 69.5064L28.8995 64.9023L34.1631 64.374L29.4029 69.5064Z" fill="#008562"/>
<path d="M13.9551 37.6963L19.4115 61.5513L24.3924 55.3914L21.1682 41.2952L13.9551 37.6963Z" fill="#00CF99"/>
<path d="M46.0513 30.3545L51.5077 54.2095L44.3443 50.8274L41.12 36.7313L46.0513 30.3545Z" fill="#00CF99"/>
<path d="M39.1682 37.1779L30.1026 34.4591L23.1203 40.8486L26.295 54.7278L35.3606 57.4466L42.3429 51.0571L39.1682 37.1779Z" fill="#00CF99"/>
<path d="M30.5731 32.5257L28.4897 23.4175L44.9542 28.5517L39.6884 35.4614L30.5731 32.5257Z" fill="#00CF99"/>
<path d="M29.0551 32.8729L26.9717 23.7646L14.3764 35.5458L22.1224 39.4793L29.0551 32.8729Z" fill="#00CF99"/>
<path d="M36.6246 58.983L38.708 68.0913L51.3033 56.3102L43.5573 52.3767L36.6246 58.983Z" fill="#00CF99"/>
<path d="M35.1066 59.3302L37.1899 68.4385L20.7255 63.3043L25.9913 56.3946L35.1066 59.3302Z" fill="#00CF99"/>
<g filter="url(#filter0_d_674_661)">
<path d="M20.2504 81.1807C26.7152 82.0806 32.1729 83.2658 42.286 77.0609C52.6912 69.4072 60.871 55.3731 61.7264 47.6221C62.8701 38.1368 61.4336 31.2883 69.3878 22.7103C73.0763 19.5908 74.4099 18.7323 75.9727 17.7835C71.472 20.2225 64.2553 24.6201 56.1421 31.3714C51.1615 35.6665 50.3765 36.4201 45.8258 42.7689C42.2477 47.9566 39.7739 52.3761 35.4238 60.8687C31.2756 67.8369 29.5668 69.51 21.5996 75.5369C15.4399 79.23 13.6653 80.2316 13.4715 80.3064C13.4692 80.3027 13.4674 80.2991 13.4661 80.2955C13.4477 80.3108 13.4478 80.3155 13.4715 80.3064C13.6739 80.6189 18.0584 81.0184 20.2504 81.1807Z" fill="#008562"/>
</g>
<path d="M30.1903 70.9988L34.0457 71.0791L36.2968 74.666L34.6925 78.1727L30.8371 78.0925L28.586 74.5055L30.1903 70.9988Z" fill="#00CF99"/>
<path d="M41.446 65.3228L44.8859 64.703L47.529 67.4864L46.7322 70.8896L43.2923 71.5094L40.6492 68.726L41.446 65.3228Z" fill="#00CF99"/>
<path d="M48.7483 56.2549L51.9772 54.8033L55.2566 56.8916L55.3069 60.4315L52.078 61.8831L48.7986 59.7948L48.7483 56.2549Z" fill="#00CF99"/>
<path d="M52.242 47.361L54.3639 44.5879L58.1886 44.8632L59.8914 47.9117L57.7695 50.6849L53.9448 50.4095L52.242 47.361Z" fill="#00CF99"/>
<path d="M54.4253 37.6778L55.5988 35.0889L58.6824 34.6049L60.5926 36.7098L59.4191 39.2986L56.3354 39.7826L54.4253 37.6778Z" fill="#00CF99"/>
<defs>
<filter id="filter0_d_674_661" x="9.45312" y="10.7837" width="70.5195" height="72.1255" filterUnits="userSpaceOnUse" color-interpolation-filters="sRGB">
<feFlood flood-opacity="0" result="BackgroundImageFix"/>
<feColorMatrix in="SourceAlpha" type="matrix" values="0 0 0 0 0 0 0 0 0 0 0 0 0 0 0 0 0 0 127 0" result="hardAlpha"/>
<feOffset dy="-3"/>
<feGaussianBlur stdDeviation="2"/>
<feComposite in2="hardAlpha" operator="out"/>
<feColorMatrix type="matrix" values="0 0 0 0 0 0 0 0 0 0 0 0 0 0 0 0 0 0 0.25 0"/>
<feBlend mode="normal" in2="BackgroundImageFix" result="effect1_dropShadow_674_661"/>
<feBlend mode="normal" in="SourceGraphic" in2="effect1_dropShadow_674_661" result="shape"/>
</filter>
</defs>
</svg>
