<svg width="20" height="10" viewBox="0 0 20 10" fill="none" xmlns="http://www.w3.org/2000/svg">
<path d="M9 9C9 9.55228 8.55228 10 8 10H5C3.61667 10 2.4375 9.5125 1.4625 8.5375C0.4875 7.5625 0 6.38333 0 5C0 3.61667 0.4875 2.4375 1.4625 1.4625C2.4375 0.4875 3.61667 0 5 0H8C8.55228 0 9 0.447715 9 1V1C9 1.55228 8.55228 2 8 2H5C4.16667 2 3.45833 2.29167 2.875 2.875C2.29167 3.45833 2 4.16667 2 5C2 5.83333 2.29167 6.54167 2.875 7.125C3.45833 7.70833 4.16667 8 5 8H8C8.55228 8 9 8.44772 9 9V9ZM7 6C6.44772 6 6 5.55228 6 5V5C6 4.44772 6.44772 4 7 4H13C13.5523 4 14 4.44772 14 5V5C14 5.55228 13.5523 6 13 6H7ZM12 10C11.4477 10 11 9.55228 11 9V9C11 8.44772 11.4477 8 12 8H15C15.8333 8 16.5417 7.70833 17.125 7.125C17.7083 6.54167 18 5.83333 18 5C18 4.16667 17.7083 3.45833 17.125 2.875C16.5417 2.29167 15.8333 2 15 2H12C11.4477 2 11 1.55228 11 1V1C11 0.447715 11.4477 0 12 0H15C16.3833 0 17.5625 0.4875 18.5375 1.4625C19.5125 2.4375 20 3.61667 20 5C20 6.38333 19.5125 7.5625 18.5375 8.5375C17.5625 9.5125 16.3833 10 15 10H12Z" fill="#333333"/>
</svg>
